<?xml version="1.0" encoding="UTF-8"?>
<svg id="Layer_1" data-name="Layer 1" xmlns="http://www.w3.org/2000/svg" viewBox="0 0 666.43 666.43">
  <defs>
    <style>
      .cls-1 {
        fill: #201e1c;
      }

      .cls-2 {
        fill: #f3f0e8;
      }
    </style>
  </defs>
  <circle class="cls-1" cx="333.22" cy="333.22" r="333.22"/>
  <g>
    <g>
      <path class="cls-2" d="M80.05,263.96c0,26.05,71.87,22.09,71.87,63.14,0,23.24-24.4,37.42-52.26,37.42-13.46,0-26.61-2.87-31.89-4.53l-9.81,4.2-2.64-47.81h.82c2.72,21.92,13.85,47.31,43.52,47.31,15,0,26.87-5.77,26.87-17.97,0-27.7-71.88-25.22-71.88-65.12,0-22.25,21.84-34.12,47.64-34.12,9.22,0,24.25,2.86,28.69,4.53l10.04-4.2,2.14,40.55h-.82c-2.06-20.28-13.52-40.06-40.06-40.06-13.77,0-22.26,6.76-22.26,16.65h0Z"/>
      <path class="cls-2" d="M196.27,362.38h12.86v.82h-56.21v-.82h12.86v-126.71l-13.19.76v-.82l43.69-2.64v129.41Z"/>
      <path class="cls-2" d="M309.68,319.85c0,26.38-21.1,44.68-48.14,44.68s-48.14-18.3-48.14-44.68,21.1-44.67,48.14-44.67,48.14,18.3,48.14,44.67ZM276.06,319.85c0-23.57-1.65-43.85-14.51-43.85s-14.51,20.28-14.51,43.85c0,25.22,1.65,43.85,14.51,43.85s14.51-18.63,14.51-43.85Z"/>
      <path class="cls-2" d="M417.49,341.61c0,15.17-6.76,22.58-23.08,22.58-13.46,0-19.58-6.38-20.48-19.3-2.95,11.48-16.24,19.63-30.62,19.63-15.5,0-25.39-7.58-25.39-21.76,0-26.05,37.03-21.62,55.72-34.42v-10.75c0-10.06-1.57-21.6-12.78-21.6-8.98,0-13.11,6.26-13.11,13.76,0,4.2,2.31,8.57,5.77,10.14-.49,9.4-7.17,13.85-14.59,13.85-8.9,0-15.58-5.6-15.58-14.92,0-19.37,25.72-23.66,37.5-23.66,23,0,43.44,6.43,43.44,25.55v38.99c0,10.39.33,16.98,5.28,16.98,6.26,0,7.09-10.14,7.09-15.08h.82ZM363.01,353.97c6.68,0,10.63-6.59,10.63-12.36v-32.28c-11.72,7.57-22.09,8.63-22.09,27.34,0,7.42,2.56,17.31,11.46,17.31h0Z"/>
      <path class="cls-2" d="M514.43,362.38h12.86v.82h-52.83v-.82h9.4v-68.83c0-4.62-.08-12.45-7.83-12.45-6.86,0-14.2,7.44-17.06,23.67v57.6h9.48v.82h-52.92v-.82h12.86v-84.17l-13.19.76v-.82l44.1-2.64-.58,26.54.1.03c3.75-21.09,18.03-26.74,31.06-26.74,14.34,0,24.56,8.41,24.56,26.54v60.5Z"/>
      <path class="cls-2" d="M615.65,332.38c-7.25,17.47-21.68,32.15-44.59,32.15s-42.45-16.07-42.45-43.19,18.87-46.24,47.72-46.24,42.28,14.42,38.33,35.36h-54.92c.92,23.45,13.51,35.36,29.62,35.36,8.57,0,19.86-3.13,25.72-13.76l.58.33ZM576.33,275.92c-14.26,0-16.65,20.77-16.65,31.73,0,.61,0,1.22.02,1.81h25.61c1.49-10.29,3.79-33.55-8.99-33.55h0Z"/>
    </g>
    <g>
      <path class="cls-2" d="M372.7,400.18v32.76h-4.27v-32.76h-11.56v-1.61h27.34v1.61h-11.51Z"/>
      <path class="cls-2" d="M401.86,408.98c5.16,0,7.92,3.33,7.92,7.76v16.2h-3.7v-15.41c0-5.1-2.29-6.87-5.52-6.87-3.91,0-6.82,3.91-6.82,6.87v15.41h-3.65v-38.28h3.65v19.84c.78-2.55,3.7-5.52,8.12-5.52Z"/>
      <path class="cls-2" d="M426.91,433.46c-6.46,0-10.62-4.17-10.62-12.03,0-6.72,3.8-12.45,10.26-12.45,5.78,0,9.69,4.48,9.69,10.83h-15.88v1.46c0,8.8,3.28,10.62,7.13,10.62s7.13-2.08,7.6-6.09h.73c-.36,4.37-4.27,7.66-8.91,7.66ZM420.45,418.72h11.72c0-6.72-2.66-8.54-5.57-8.54-3.33,0-5.73,1.82-6.14,8.54Z"/>
      <path class="cls-2" d="M460.76,405.55c0,3.44,1.67,5.52,7.71,8.07,6.77,2.92,9.43,5.57,9.43,10.57,0,5.52-5.1,9.27-11.09,9.27s-10.41-3.02-10.99-9.74h.99c.73,5.94,4.69,8.28,9.89,8.28,4.48,0,7.55-2.55,7.55-6.72,0-3.91-2.19-5.68-8.12-8.18-6.67-2.76-8.7-5.62-8.7-10.05s2.86-9.01,10.1-9.01c5.68,0,9.01,3.28,9.58,8.96h-1.04c-.57-4.95-3.65-7.5-8.49-7.5s-6.82,2.6-6.82,6.04Z"/>
      <path class="cls-2" d="M498.46,428.82c-.99,2.19-3.54,4.64-7.76,4.64s-6.61-1.98-6.61-5.47c0-4.48,3.02-6.09,7.92-7.03l6.46-1.25v-2.29c0-4.79-2.55-6.77-5.83-6.77s-5.99,1.88-6.2,5.26h-.62c.16-4.74,3.59-6.98,7.76-6.98,6.2,0,8.54,4.06,8.54,8.49v15.52h-3.65v-4.11ZM498.46,426.53v-5.73l-4.27.78c-3.91.73-6.04,2.14-6.04,5.99,0,2.66,1.41,4.32,4.27,4.32,3.23,0,6.04-3.23,6.04-5.36Z"/>
      <path class="cls-2" d="M514.23,432.94h-3.65v-38.28h3.65v38.28Z"/>
      <path class="cls-2" d="M531.57,408.98c6.56,0,10.47,5.31,10.47,11.98s-3.91,12.5-10.47,12.5-10.57-5.47-10.57-12.08,3.96-12.39,10.57-12.39ZM531.57,432.31c3.85,0,6.51-2.45,6.51-11.35s-2.66-10.78-6.51-10.78-6.51,2.4-6.51,11.2,2.66,10.94,6.51,10.94Z"/>
      <path class="cls-2" d="M560.58,408.98c5.16,0,7.92,3.33,7.92,7.76v16.2h-3.7v-15.41c0-5.1-2.29-6.87-5.52-6.87-3.91,0-6.82,3.91-6.82,6.87v15.41h-3.65v-23.43h3.65v5c.78-2.55,3.7-5.52,8.12-5.52Z"/>
    </g>
  </g>
</svg>