<?xml version="1.0" encoding="UTF-8"?>
<svg xmlns="http://www.w3.org/2000/svg" viewBox="0 0 1163.24 346.27">
  <defs>
    <style>
      .cls-1 {
        fill: #fff;
        stroke-width: 0px;
      }
    </style>
  </defs>
  <g id="Layer_1" data-name="Layer 1">
    <path class="cls-1" d="M201.6,201.76c-11.6,0-16.84-6.9-16.84-20.16,0-5.8,1.38-11.6,4.42-15.74,4.14-5.52,13.53-9.11,21.26-12.15v-1.93c-14.63,3.86-39.21,11.59-44.46,13.53-3.04,1.38-10.22,9.67-10.22,23.75,0,14.91,9.94,27.61,28.99,27.61,14.08,0,25.41-9.39,28.17-16.57v-1.1c-1.66,1.1-7.18,2.76-11.32,2.76"/>
    <g>
      <path class="cls-1" d="M162.66,124.72c0,7.73,6.35,13.8,13.81,13.8s13.8-6.07,13.8-13.8-6.35-13.8-13.8-13.8-13.81,6.07-13.81,13.8"/>
      <path class="cls-1" d="M181.72,105.38c24.02,0,36.45,7.18,36.45,22.64v62.97c0,16.29,8.01,25.68,22.92,25.68s22.92-8.28,25.96-14.91v-1.94c-2.21,1.38-6.07,2.48-8.84,2.48-7.18,0-10.49-3.31-10.49-12.7v-62.68c0-22.37-11.6-33.41-34.52-33.41-9.66,0-24.57,5.79-31.48,11.04v.83Z"/>
      <path class="cls-1" d="M380.59,95.52l-.55-.28-47.5,4.69v2.21c16.02,2.21,18.51,6.63,18.51,23.75v90.29l.83.55,47.22-7.45v-1.94c-16.84-2.76-18.5-6.35-18.5-19.05v-92.78Z"/>
      <path class="cls-1" d="M274.83,180.57c0,22.64,9.94,36.17,33.13,36.17,17.95,0,29.55-9.94,36.45-21.54v-1.11c-5.52,3.32-10.77,4.97-18.78,4.97-16.29,0-21.26-6.9-21.26-25.96v-77.59l-.55-.28-46.39,4.69v2.21c16.01,2.21,17.4,6.62,17.4,23.75v54.67Z"/>
      <path class="cls-1" d="M1080.9,215.65v-2.21c-8.28-.55-17.67-2.21-23.75-8.84-7.45-7.73-8.83-19.33-8.83-29.82v-81.18l-.55-.28-43.08,14.64v1.65c10.49,5.8,14.08,10.77,14.08,20.44v121.5c0,17.67-2.76,22.1-16.84,24.03v1.93h65.99v-1.93c-13.8-1.93-19.6-7.46-19.6-24.3v-38.11c4.97,1.94,14.64,3.59,19.05,3.59,5.52,0,10.49-.55,13.53-1.1"/>
      <path class="cls-1" d="M1090.85,212.88c33.14-10.49,50.81-32.58,50.81-65.17,0-27.06-11.32-54.12-48.6-54.12-13.81,0-32.31,9.11-39.49,18.77v.55c5.25-2.76,12.7-4.14,19.33-4.14,25.68,0,37.83,19.89,37.83,48.6,0,23.47-8.28,45.84-19.88,53.29v2.21Z"/>
      <path class="cls-1" d="M416,187.97c0,17.67-3.04,22.09-16.84,24.02v2.21h63.51v-2.21c-13.25-1.93-17.12-6.9-17.12-24.02V58.46c0-11.04.55-27.06.83-38.38l-.55-.55-43.91,14.64v1.38c10.5,5.8,14.08,10.77,14.08,20.44v131.99Z"/>
      <path class="cls-1" d="M537.63,180c0,23.2-5.8,29.83-23.74,32.03v2.21h81.46v-2.21c-17.67-2.21-23.75-8.56-23.75-32.03v-105.49c0-23.47,6.08-29.82,23.75-32.03v-2.2h-81.46v2.2c17.95,2.21,23.74,8.84,23.74,32.03v105.49Z"/>
      <path class="cls-1" d="M709.66,216.18v-2.21c-13.25-2.48-22.37-11.6-31.48-20.43-14.64-14.64-53.02-64.07-68.48-85.88l-21.54,24.58c11.59,18.5,27.61,39.76,40.59,55.78,16.29,19.88,27.06,24.3,44.46,26.23,11.6,1.38,30.1,1.93,36.45,1.93"/>
      <path class="cls-1" d="M703.58,40.28h-83.94v2.21c11.32.83,23.2,4.7,23.2,17.4,0,8.01-5.25,17.12-12.98,25.4l1.38,1.66c12.98-11.32,29-24.58,43.36-33.41,10.21-6.34,20.43-10.22,28.99-11.04v-2.21Z"/>
      <path class="cls-1" d="M792.53,136.04c0-21.53-17.67-41.7-45.29-42.52v2.21c11.87,1.38,16.02,17.67,16.85,35.07l-37.01,3.32v1.93h65.45Z"/>
      <path class="cls-1" d="M739.51,94.06c-26.79,3.32-51.36,27.89-51.36,62.69,0,32.03,20.16,59.92,56.34,59.92,32.03,0,48.32-25.13,52.47-38.1l-1.38-1.11c-6.35,8.83-17.4,16.84-37,16.84-25.96,0-41.15-21.54-41.15-51.08,0-26.24,8.56-43.91,22.09-46.95v-2.21Z"/>
      <path class="cls-1" d="M963,188.3c0,16.56-3.59,21.81-16.57,23.47v2.21h62.96v-2.21c-13.81-1.93-16.85-6.35-16.85-24.02v-59.37c0-21.27-6.35-35.35-28.99-35.35-14.63,0-30.38,9.66-39.21,20.71v.83c5.79-2.21,11.6-3.86,18.5-3.86,16.02,0,20.16,8,20.16,22.92v54.68Z"/>
      <path class="cls-1" d="M916.89,128.38c0-21.26-6.35-35.35-29.27-35.35-14.36,0-30.37,9.66-38.94,20.71v.83c5.8-2.21,11.6-3.86,18.5-3.86,16.02,0,20.16,8,20.16,22.92v54.67c0,16.56-3.59,21.82-16.84,23.47v2.21h62.13v-2.21c-13.53-1.65-15.74-6.35-15.74-23.47v-59.92Z"/>
      <path class="cls-1" d="M840.95,93.03l-.55-.28-42.8,14.63v1.66c10.77,5.8,13.81,11.04,13.81,20.16v58.54c0,17.67-2.76,22.09-16.84,24.03v2.21h62.96v-2.21c-12.98-1.66-16.57-6.91-16.57-23.47v-95.27Z"/>
      <path class="cls-1" d="M77.39,40.07H19.67v2.21c17.95,2.21,23.75,8.83,23.75,32.03v105.48c0,23.2-5.8,29.82-23.75,32.03v2.21h86.43v-2.21c-19.6-2.21-28.72-8.56-28.72-32.03V40.07Z"/>
      <path class="cls-1" d="M98.86,132.43c21.21,0,33.2-4.54,33.2-4.54,19.33-6.07,33.69-19.61,33.69-41.7,0-23.2-15.47-39.21-48.05-43.9-6.07-1.11-20.43-2.21-25.4-2.21v2.21c23.75,3.03,38.66,16.02,38.66,43.63,0,20.44-3.59,36.73-22.09,42.53-3.59,1.1-6.35,1.66-9.94,2.21l-.06,1.78Z"/>
    </g>
  </g>
  <g id="Layer_2" data-name="Layer 2">
    <g>
      <path class="cls-1" d="M264.22,315.2c-6-.39-7.49-.23-11.68,0,0,0-.16-2.52-.16-7.73v-15.31c0-6.94-.71-10.89-5.52-10.89-4.18,0-10.49,4.42-10.49,14.36v11.52c0,3.39.08,4.82,1.26,5.68.63.55,1.73.71,2.92.71l-.63,1.66s-3.71-.23-6.63-.23c-3.31,0-9.15.23-9.15.23l.55-1.66c1.5,0,3,0,3.71-.71.87-.95,1.26-3,1.34-5.68,0,0,0-6.7.08-16.09,0-10.65-.32-27.07-.32-27.07-.08-1.97-.55-3.87-1.66-4.58-.79-.55-3.08-.71-4.26-.71l.56-1.66c6.07.47,8.28.24,12.46,0l-.23,28.8c3.08-6.23,8.44-9.07,13.18-9.07,6.78,0,9.07,4.89,9.39,9.79.08,1.1.08,1.34.08,6.31v14.28c0,3.39.63,4.89,1.97,5.68.71.47,2.6.71,3.79.71l-.55,1.66Z"/>
      <path class="cls-1" d="M317.36,294.61c-1.73-.16-6.94-.08-9.78,1.66-3.4,2.05-4.97,5.36-4.5,9.78.39,3.79,2.68,5.84,6.87,5.84,3.86,0,7.41-4.73,7.41-7.5,0,0,.08-2.29.08-5.37,0-2.13-.08-3.24-.08-4.42M329.12,315.13c-5.53-.23-7.1-.23-11.36,0l-.4-4.97c-1.5,1.66-4.5,5.68-11.44,5.76-4.74,0-9.71-1.58-10.18-9.07-.39-5.84,2.68-10.26,7.34-13.02,4.1-2.36,11.04-2.29,14.28-1.97v-1.34c0-8.05-1.11-11.21-6.94-11.21-5.53,0-9.32,4.03-9.16,8.84l-1.58-.08-1.35-7.5s2.29-2.61,9.16-3.55c7.97-1.11,14.84,1.26,16.18,7.34.23,1.19.31,2.13.31,7.11v15.62c0,2.92.39,4.42,1.42,5.37,1.1.94,2.44,1.1,4.34,1.1l-.63,1.58Z"/>
      <path class="cls-1" d="M366.78,269.84c-2.21,0-3.95-1.66-3.95-3.87,0-2.05,1.74-3.71,3.95-3.71,2.05,0,3.87,1.66,3.87,3.71,0,2.21-1.82,3.87-3.87,3.87M375.3,315.2c-5.99-.39-7.5-.23-11.67,0,0,0-.16-2.52-.16-7.73v-22.8c0-3-.95-3.87-1.97-4.58-.87-.47-2.37-.71-3.55-.71l.71-1.66c5.92.55,7.34.32,11.44,0v29.43c0,3.39.79,4.82,1.98,5.68.79.39,2.6.71,3.79.71l-.55,1.66Z"/>
      <path class="cls-1" d="M431.99,285.93c-.55.23-1.81.39-1.81.39,0-3.55-3.63-4.18-5.92-3-3.47,1.82-5.29,7.02-5.21,12.31l.16,11.52c0,3.39.71,4.73,1.97,5.68.63.48,3.32.71,4.66.71l-.71,1.66s-6.08-.24-9-.24c-3.23,0-9.16.24-9.16.24l.55-1.66c1.5,0,3.08-.08,3.71-.71.87-1.02,1.26-2.99,1.26-5.68v-11.21c0-8.52-.23-11.21-.23-11.21-.08-2.92-.63-4.02-1.66-4.65-.95-.55-3.16-.87-4.34-.87l.71-1.5c6,.4,8.21.24,12.31,0l-.24,8.92c1.42-5.37,4.18-9.86,9.31-9.86,4.26,0,4.18,2.36,4.18,2.36l-.55,6.79Z"/>
      <path class="cls-1" d="M487.86,287.27c0-3.47.79-6.94-3.63-7.42-3.95-.47-8.05.71-11.13,4.81-2.05,2.76-3,6.31-3,12.94,0,8.92,4.34,15.23,9.47,15.23,4.66,0,8.21-4.74,8.21-8.68,0,0,.16-5.37.16-9.63,0-2.92-.08-7.26-.08-7.26M499.77,315.2c-5.6-.23-7.1-.23-11.44,0l-.4-4.42c-1.73,3-5.52,5.45-9.7,5.45-7.34,0-11.44-4.73-13.34-8.76-2.21-4.82-3-11.44-.63-18.15,1.97-5.29,7.18-12.55,17.84-12.55,1.97,0,3.86.31,5.76.71l-.08-13.49c0-2.76-.55-3.79-1.82-4.58-.79-.48-3-.71-4.18-.71l.55-1.66c5.21.24,8.05.24,12.31,0-.16,12.23-.16,19.89-.16,30.54,0,7.89.16,19.56.16,19.56.08,2.92.39,4.42,1.26,5.29,1.1,1.02,2.6,1.1,4.5,1.1l-.63,1.66Z"/>
      <path class="cls-1" d="M556.49,285.93c-.55.23-1.81.39-1.81.39,0-3.55-3.63-4.18-5.92-3-3.47,1.82-5.29,7.02-5.21,12.31l.16,11.52c0,3.39.71,4.73,1.97,5.68.63.48,3.32.71,4.66.71l-.71,1.66s-6.08-.24-9-.24c-3.23,0-9.15.24-9.15.24l.55-1.66c1.5,0,3.08-.08,3.71-.71.87-1.02,1.26-2.99,1.26-5.68v-11.21c0-8.52-.24-11.21-.24-11.21-.08-2.92-.63-4.02-1.66-4.65-.95-.55-3.16-.87-4.34-.87l.71-1.5c6,.4,8.21.24,12.31,0l-.24,8.92c1.42-5.37,4.18-9.86,9.31-9.86,4.26,0,4.18,2.36,4.18,2.36l-.55,6.79Z"/>
      <path class="cls-1" d="M603.4,279.38c-3.08,0-7.34,2.84-8.21,13.1h12.55c2.06,0,1.97-.08,1.97-2.53,0-5.29-1.66-10.57-6.31-10.57M616.58,295.32s-21.62-.08-21.62,0c-.71,10.1,4.11,18.07,11.13,18.07,6.07,0,9.54-3.7,9.54-3.7l.48,2.29s-3.86,4.81-12.94,4.42c-8.13-.32-16.33-7.26-15.7-20.2.39-8.05,5.36-19.41,16.09-19.41s13.26,8.44,13.26,15.39c0,1.89-.24,3.16-.24,3.16"/>
      <path class="cls-1" d="M659.46,316.39c-7.97,0-10.41-3.16-10.41-3.16l.79-7.97,1.58-.32c0,5.84,3.31,9.16,9.23,8.92,3.94-.16,7.26-3.32,7.26-7.1,0-9.47-17.83-6.79-17.83-20.44,0-5.37,4.74-9.55,13.33-9.55,6.63,0,9.07,3.08,9.07,3.08l-.79,7.81-1.42.32c-.08-5.84-2.84-7.58-6.08-8.52-2.84-.79-7.89.63-7.89,5.6,0,8.92,17.68,7.26,17.68,19.1,0,7.5-6,12.23-14.52,12.23"/>
      <path class="cls-1" d="M716.9,316.39c-7.97,0-10.42-3.16-10.42-3.16l.79-7.97,1.58-.32c0,5.84,3.32,9.16,9.23,8.92,3.95-.16,7.26-3.32,7.26-7.1,0-9.47-17.83-6.79-17.83-20.44,0-5.37,4.74-9.55,13.34-9.55,6.63,0,9.07,3.08,9.07,3.08l-.79,7.81-1.41.32c-.08-5.84-2.85-7.58-6.08-8.52-2.84-.79-7.89.63-7.89,5.6,0,8.92,17.68,7.26,17.68,19.1,0,7.5-6,12.23-14.52,12.23"/>
      <path class="cls-1" d="M771.4,269.84c-2.2,0-3.94-1.66-3.94-3.87,0-2.05,1.74-3.71,3.94-3.71,2.06,0,3.87,1.66,3.87,3.71,0,2.21-1.81,3.87-3.87,3.87M779.92,315.2c-5.99-.39-7.5-.23-11.67,0,0,0-.16-2.52-.16-7.73v-22.8c0-3-.95-3.87-1.97-4.58-.87-.47-2.37-.71-3.55-.71l.71-1.66c5.92.55,7.34.32,11.44,0v29.43c0,3.39.79,4.82,1.98,5.68.78.39,2.6.71,3.79.71l-.55,1.66Z"/>
      <path class="cls-1" d="M851.7,315.2c-6-.39-7.5-.23-11.67,0,0,0-.16-2.52-.16-7.73v-15.31c0-5.52-.32-10.89-5.21-10.89-4.26,0-10.89,4.34-10.81,14.36l.08,11.52c0,3.39.08,4.82,1.26,5.68.63.55,1.74.71,2.92.71l-.63,1.66s-3.71-.23-6.63-.23c-3.32,0-9.16.23-9.16.23l.55-1.66c1.5,0,3,0,3.71-.71.87-.95,1.34-3,1.34-5.68v-8.68c0-10.65-.16-13.58-.16-13.58-.08-2.92-.87-4.02-1.81-4.65-.87-.55-3.08-.87-4.18-.87l.55-1.66c6,.39,8.29.24,12.39,0l-.24,8.12c3-6.07,9.54-10.73,16.25-8.76,5.05,1.5,6.32,6.32,6.32,9.47,0,1.1.08,1.34.08,6.31v14.28c0,3.39.32,4.58,1.5,5.6.79.71,3.15.79,4.26.79l-.55,1.66Z"/>
      <path class="cls-1" d="M898.49,279.3c-4.42,0-7.18,4.58-7.1,10.97,0,6.39,2.84,11.45,7.26,11.45,4.66,0,7.18-5.37,7.18-11.76-.08-6.39-2.68-10.65-7.34-10.65M893.92,314.65c-5.28,2.69-8.36,6.71-5.68,10.42,2.37,3.08,9.47,6.23,16.02,4.5,7.5-2.05,8.29-7.34,6.39-10.81-1.42-2.52-5.05-4.65-16.73-4.1M895.89,333.51c-9.47,0-15.23-4.81-15.62-8.13-.71-5.52,6.63-9.15,10.18-11.05-2.84-.31-6.23-1.34-6.39-4.65-.08-1.42,4.02-2.92,8.52-6.71-2.92-.94-5.13-3.08-6.47-5.29-1.73-2.68-2.68-7.02-.79-11.84,1.42-3.7,5.84-9.07,14.44-9.07,1.34,0,2.6.31,3.79.63.87.4,7.02.95,11.36-.23v3.16l-6.23-.23-2.05-.55,1.19.79c1.42.95,1.97,1.03,3.23,2.92,1.66,2.68,2.84,6.95.87,11.76-1.58,3.63-5.84,8.92-14.52,8.92-.87,0-1.19,0-2.29.08-1.42.55-3.32,3.31-2.68,3.87.87.79,9.78.16,15.15,1.66,5.05,1.42,9.94,5.52,7.89,12.71-2.45,8.36-11.05,11.28-19.57,11.28"/>
    </g>
  </g>
</svg>