<?xml version="1.0" encoding="UTF-8"?>
<svg id="Layer_1" data-name="Layer 1" xmlns="http://www.w3.org/2000/svg" viewBox="0 0 786.03 300">
  <defs>
    <style>
      .cls-1 {
        fill: #f3f0e8;
      }
    </style>
  </defs>
  <g>
    <path class="cls-1" d="M48.54,56.24c0,35.25,97.28,29.9,97.28,85.45,0,31.46-33.02,50.65-70.73,50.65-18.22,0-36.01-3.89-43.17-6.13l-13.28,5.69-3.57-64.7h1.12c3.68,29.67,18.74,64.03,58.9,64.03,20.3,0,36.37-7.81,36.37-24.32,0-37.48-97.28-34.14-97.28-88.13,0-30.12,29.56-46.18,64.48-46.18,12.49,0,32.82,3.87,38.83,6.12l13.59-5.68,2.9,54.89h-1.12c-2.79-27.44-18.29-54.22-54.22-54.22-18.63,0-30.12,9.15-30.12,22.53h0Z"/>
    <path class="cls-1" d="M205.83,189.44h17.4v1.12h-76.08v-1.12h17.4V17.95l-17.85,1.03v-1.12l59.13-3.57v175.15Z"/>
    <path class="cls-1" d="M359.33,131.88c0,35.7-28.56,60.46-65.15,60.46s-65.15-24.77-65.15-60.46,28.56-60.46,65.15-60.46,65.15,24.77,65.15,60.46ZM313.82,131.88c0-31.91-2.23-59.35-19.63-59.35s-19.63,27.44-19.63,59.35c0,34.14,2.23,59.35,19.63,59.35s19.63-25.21,19.63-59.35Z"/>
    <path class="cls-1" d="M505.25,161.33c0,20.53-9.15,30.57-31.24,30.57-18.22,0-26.5-8.63-27.72-26.12-3.99,15.54-21.97,26.57-41.44,26.57-20.97,0-34.36-10.26-34.36-29.45,0-35.26,50.12-29.26,75.41-46.59v-14.54c0-13.61-2.12-29.23-17.29-29.23-12.16,0-17.74,8.48-17.74,18.63,0,5.69,3.12,11.6,7.81,13.72-.67,12.72-9.71,18.74-19.75,18.74-12.05,0-21.08-7.59-21.08-20.19,0-26.22,34.81-32.02,50.76-32.02,31.12,0,58.79,8.7,58.79,34.58v52.77c0,14.06.45,22.98,7.14,22.98,8.48,0,9.59-13.72,9.59-20.42h1.11ZM431.5,178.06c9.04,0,14.39-8.92,14.39-16.73v-43.69c-15.86,10.24-29.89,11.68-29.89,37,0,10.04,3.46,23.43,15.51,23.43h0Z"/>
    <path class="cls-1" d="M636.44,189.44h17.4v1.12h-71.51v-1.12h12.72v-93.15c0-6.25-.11-16.84-10.6-16.84-9.28,0-19.21,10.07-23.09,32.04v77.95h12.83v1.12h-71.62v-1.12h17.4v-113.92l-17.85,1.03v-1.12l59.68-3.57-.78,35.92.13.04c5.08-28.55,24.4-36.19,42.03-36.19,19.41,0,33.24,11.38,33.24,35.92v81.89Z"/>
    <path class="cls-1" d="M773.43,148.84c-9.82,23.65-29.34,43.51-60.35,43.51s-57.45-21.75-57.45-58.46,25.55-62.58,64.59-62.58,57.23,19.52,51.87,47.86h-74.33c1.25,31.74,18.29,47.86,40.08,47.86,11.6,0,26.88-4.24,34.81-18.63l.79.45ZM720.22,72.42c-19.3,0-22.53,28.11-22.53,42.95,0,.83,0,1.65.03,2.45h34.67c2.02-13.93,5.13-45.4-12.16-45.4h0Z"/>
  </g>
  <g>
    <path class="cls-1" d="M444.62,240.6v44.33h-5.78v-44.33h-15.65v-2.18h37v2.18h-15.58Z"/>
    <path class="cls-1" d="M484.09,252.51c6.98,0,10.71,4.51,10.71,10.5v21.92h-5v-20.86c0-6.91-3.1-9.3-7.47-9.3-5.29,0-9.23,5.29-9.23,9.3v20.86h-4.93v-51.8h4.93v26.85c1.06-3.45,5-7.47,11-7.47Z"/>
    <path class="cls-1" d="M517.99,285.64c-8.74,0-14.38-5.64-14.38-16.28,0-9.09,5.15-16.84,13.88-16.84,7.82,0,13.11,6.06,13.11,14.66h-21.5v1.97c0,11.91,4.44,14.38,9.66,14.38s9.66-2.82,10.29-8.25h.99c-.49,5.92-5.78,10.36-12.05,10.36ZM509.25,265.69h15.86c0-9.09-3.59-11.56-7.54-11.56-4.51,0-7.75,2.47-8.32,11.56Z"/>
    <path class="cls-1" d="M563.8,247.86c0,4.65,2.26,7.47,10.43,10.92,9.16,3.95,12.76,7.54,12.76,14.31,0,7.47-6.91,12.55-15.01,12.55s-14.1-4.09-14.87-13.18h1.34c.99,8.03,6.34,11.21,13.39,11.21,6.06,0,10.22-3.45,10.22-9.09,0-5.29-2.96-7.68-11-11.07-9.02-3.74-11.77-7.61-11.77-13.6s3.88-12.19,13.67-12.19c7.68,0,12.19,4.44,12.97,12.12h-1.41c-.78-6.7-4.93-10.15-11.49-10.15s-9.23,3.52-9.23,8.18Z"/>
    <path class="cls-1" d="M614.82,279.37c-1.34,2.96-4.79,6.27-10.5,6.27s-8.95-2.68-8.95-7.4c0-6.06,4.09-8.25,10.71-9.52l8.74-1.69v-3.1c0-6.48-3.45-9.16-7.89-9.16s-8.1,2.54-8.39,7.12h-.85c.21-6.41,4.86-9.44,10.5-9.44,8.39,0,11.56,5.5,11.56,11.49v21h-4.93v-5.57ZM614.82,276.26v-7.75l-5.78,1.06c-5.29.99-8.18,2.89-8.18,8.1,0,3.59,1.9,5.85,5.78,5.85,4.37,0,8.18-4.37,8.18-7.26Z"/>
    <path class="cls-1" d="M636.18,284.93h-4.93v-51.8h4.93v51.8Z"/>
    <path class="cls-1" d="M659.64,252.51c8.88,0,14.17,7.19,14.17,16.21s-5.29,16.92-14.17,16.92-14.31-7.4-14.31-16.35,5.36-16.77,14.31-16.77ZM659.64,284.09c5.22,0,8.81-3.31,8.81-15.37s-3.59-14.59-8.81-14.59-8.81,3.24-8.81,15.15,3.59,14.8,8.81,14.8Z"/>
    <path class="cls-1" d="M698.9,252.51c6.98,0,10.71,4.51,10.71,10.5v21.92h-5v-20.86c0-6.91-3.1-9.3-7.47-9.3-5.29,0-9.23,5.29-9.23,9.3v20.86h-4.93v-31.72h4.93v6.77c1.06-3.45,5-7.47,11-7.47Z"/>
  </g>
</svg>