<svg id="Layer_1" data-name="Layer 1" xmlns="http://www.w3.org/2000/svg" viewBox="0 0 3337.93 1800"><defs><style>.cls-1{fill:#fff;}</style></defs><title>base_logo</title><path class="cls-1" d="M844.43,475Q951.94,611.19,951.94,826.56q0,223.28-106,370.08t-296,146.8q-119.28,0-191.73-47.47-43.31-28.12-93.65-98.45V1318h-247V24H268V484.62q47.76-66.81,105.28-102,68.12-43.95,173.41-43.95Q736.92,338.7,844.43,475ZM635,1058.63q54.06-78.24,54.07-205.7,0-102-26.58-168.77Q612,557.58,476.39,557.58,339,557.58,287.6,681.52,261,747.45,261,852.06,261,975.12,316,1056t167.52,80.87Q581,1136.86,635,1058.63Z" transform="translate(-17.52 -24)"/><path class="cls-1" d="M1289.74,735.14q69.94-8.79,100.06-22,54-22.86,54-71.21,0-58.89-41.43-81.32t-121.62-22.4q-90,0-127.43,44-26.73,32.52-35.64,87.9H876q7.92-125.7,70.62-206.57,99.76-126.58,342.56-126.58,158,0,280.74,62.41T1692.6,634.93v439.52q0,45.72,1.75,110.76,2.64,49.23,14.93,66.81t36.92,29V1318H1473.7q-11.43-29-15.83-54.5t-7-58a516.85,516.85,0,0,1-120.25,95.81q-81.35,46.59-183.9,46.59-130.87,0-216.17-74.27T845.19,1063q0-176.7,137.26-255.81,75.27-43.07,221.39-61.53Zm153.19,116.92a279.23,279.23,0,0,1-48.58,24.18q-24.49,9.19-67.28,17.13l-57,10.55Q1189.86,918,1154.91,938.2q-59.21,34.29-59.19,106.37,0,64.17,36.15,92.72t87.92,28.58q82.1,0,151.27-47.47t71.87-173.17Z" transform="translate(-17.52 -24)"/><path class="cls-1" d="M1889.7,1012q8,66.81,34.45,94.94,46.83,50.1,173.12,50.1,74.19,0,117.9-22t43.72-65.93q0-42.2-35.2-64.17t-262.11-75.6Q1798.29,889,1731.47,828.32q-66.81-59.77-66.81-172.29,0-132.74,104.39-228.1t293.8-95.39q179.67,0,292.89,71.63t129.94,247.46h-250.5q-5.31-48.35-27.33-76.47-41.46-51-141.06-51-81.94,0-116.77,25.5t-34.81,59.77q0,43.08,37,62.41,37,20.22,261.59,69.45,149.67,35.16,224.41,106.36,73.83,72.08,73.84,180.2,0,142.41-106.15,232.5t-328.08,90.11q-226.35,0-334.25-95.38t-107.91-243Z" transform="translate(-17.52 -24)"/><path class="cls-1" d="M3105,379.21q100.23,44.9,165.57,141.74,58.83,85.38,76.34,198.08,10.11,66,8.24,190.16H2657.31q5.83,144.16,100.21,202.18,57.38,36,138.11,36,85.62,0,139.12-44,29.19-23.73,51.57-65.93h255.76q-10.1,85.28-92.88,173.17-128.74,139.77-360.47,139.77-191.28,0-337.49-117.89T2405,849q0-248.94,132-381.82T2879.65,334.3Q3004.73,334.3,3105,379.21ZM2730.21,595.63q-53.11,54.74-66.74,148.3h431.6q-6.86-99.76-66.72-151.41t-148.6-51.64Q2783.29,540.88,2730.21,595.63Z" transform="translate(-17.52 -24)"/><path class="cls-1" d="M19.19,1818.24V1600H39.8v93.65H168.9V1600h20.6v218.2H168.9v-107H39.8v107Z" transform="translate(-17.52 -24)"/><path class="cls-1" d="M324.35,1818.24,410.12,1600h23.33l83.64,218.2H495.88l-25.15-68.49h-99.4l-25.77,68.49Zm53.94-86.07h85.47L421,1617.62Z" transform="translate(-17.52 -24)"/><path class="cls-1" d="M659.82,1818.24V1600h20.61v218.2Z" transform="translate(-17.52 -24)"/><path class="cls-1" d="M862.86,1719.14v99.1l-20.61-.32V1600h85.46q36.06,0,55.16,13.5t19.09,43.77q0,20.64-8.34,32.74t-27.12,20.61q9.69,3.35,15.16,9.69a43,43,0,0,1,8.17,14.55,73.5,73.5,0,0,1,3.49,17.27q.76,9.09,1.06,17.58.3,12.43,1.06,20.61a122.62,122.62,0,0,0,1.83,13.32,31.23,31.23,0,0,0,2.56,8,12.12,12.12,0,0,0,3.65,4.4v1.81l-22.73.32q-3.35-5.46-4.7-15.16t-2.13-20.3q-.75-10.6-1.21-20.61a120.43,120.43,0,0,0-1.66-16.37c-1.21-5.86-3.18-10.54-5.91-14.08a26.92,26.92,0,0,0-9.85-8,42.6,42.6,0,0,0-12.88-3.63,115.33,115.33,0,0,0-14.7-.92Zm64.25-17.58a89,89,0,0,0,21.36-2.42,48.26,48.26,0,0,0,17.12-7.72,38.35,38.35,0,0,0,11.52-13.5q4.25-8.18,4.24-19.69,0-12.12-4.39-20a33.22,33.22,0,0,0-11.82-12.42,50.17,50.17,0,0,0-17-6.37,106,106,0,0,0-19.85-1.82H862.86v83.94Z" transform="translate(-17.52 -24)"/><path class="cls-1" d="M1150.32,1818.24V1600h72.31c5.87,0,11.65.16,17.34.45a116.53,116.53,0,0,1,16.76,2.13,81.46,81.46,0,0,1,16,5,76.39,76.39,0,0,1,15.14,8.79,65.53,65.53,0,0,1,17.34,19.24A114.29,114.29,0,0,1,1316,1659.6a144.53,144.53,0,0,1,5.58,25.45,191.46,191.46,0,0,1,1.62,23.8,188.87,188.87,0,0,1-1.32,22.11,150.42,150.42,0,0,1-4.26,22,115.58,115.58,0,0,1-7.8,20.61,78.34,78.34,0,0,1-12.21,18,65.46,65.46,0,0,1-16,13.64,81.56,81.56,0,0,1-18.21,8,107,107,0,0,1-19.85,3.94,202.65,202.65,0,0,1-20.87,1.06Zm20-17.58h47.92a183.68,183.68,0,0,0,25.42-1.66,71.88,71.88,0,0,0,24.24-8.34,48,48,0,0,0,17.35-14.85,82.28,82.28,0,0,0,10.74-20.45,113.5,113.5,0,0,0,5.59-23.19,181.18,181.18,0,0,0,1.6-23.32,200.51,200.51,0,0,0-1.46-24.11,101.58,101.58,0,0,0-5.57-23.32A79.67,79.67,0,0,0,1285,1641.1a56.66,56.66,0,0,0-18.25-15.29,60.44,60.44,0,0,0-22.33-6.67,224.61,224.61,0,0,0-26.16-1.52H1170.3Z" transform="translate(-17.52 -24)"/><path class="cls-1" d="M1486.47,1719.14v99.1l-20.61-.32V1600h85.46q36,0,55.17,13.5t19.08,43.77q0,20.64-8.34,32.74t-27.11,20.61q9.68,3.35,15.16,9.69a43,43,0,0,1,8.16,14.55,73,73,0,0,1,3.48,17.27q.76,9.09,1.07,17.58c.2,8.29.57,15.16,1.06,20.61a125.53,125.53,0,0,0,1.82,13.32,30.8,30.8,0,0,0,2.57,8,12.2,12.2,0,0,0,3.64,4.4v1.81l-22.72.32q-3.34-5.46-4.71-15.16t-2.11-20.3q-.76-10.6-1.21-20.61a118.42,118.42,0,0,0-1.68-16.37c-1.21-5.86-3.16-10.54-5.9-14.08a26.89,26.89,0,0,0-9.84-8,42.73,42.73,0,0,0-12.9-3.63,115.17,115.17,0,0,0-14.69-.92Zm64.25-17.58a88.89,88.89,0,0,0,21.35-2.42,48.31,48.31,0,0,0,17.13-7.72,38,38,0,0,0,11.51-13.5q4.27-8.18,4.26-19.69c0-8.08-1.49-14.75-4.4-20a33.22,33.22,0,0,0-11.82-12.42,50.25,50.25,0,0,0-17-6.37,106,106,0,0,0-19.85-1.82h-65.46v83.94Z" transform="translate(-17.52 -24)"/><path class="cls-1" d="M1774.37,1818.24V1600h145.14v17.58H1795v78.8h112.44V1714H1795v86.68h127.6v17.58Z" transform="translate(-17.52 -24)"/><path class="cls-1" d="M2074.06,1753.09q1.23,14.54,6.52,24.69a48.83,48.83,0,0,0,13.64,16.51,54,54,0,0,0,19.26,9.26,91.47,91.47,0,0,0,23.32,2.87q14.53,0,25.16-3.63a47.64,47.64,0,0,0,17.27-9.85,38.6,38.6,0,0,0,9.85-14.4,47.53,47.53,0,0,0,3.18-17.28q0-12.72-5.76-20.59a44.3,44.3,0,0,0-15-12.9,93.45,93.45,0,0,0-21.22-8c-8-2-16.17-4-24.53-5.9s-16.57-4.2-24.56-6.82a77.46,77.46,0,0,1-21.21-10.61,51.49,51.49,0,0,1-15-17.13q-5.78-10.45-5.77-26.51a53.22,53.22,0,0,1,4.71-21.82,54.41,54.41,0,0,1,13.93-18.79,68.53,68.53,0,0,1,23.19-13q13.93-4.86,32.13-4.86,18.47,0,32.27,5.15a64.3,64.3,0,0,1,22.88,14.11,57.87,57.87,0,0,1,13.63,20.74,69.63,69.63,0,0,1,4.55,25.16h-19.69q0-12.42-4.41-21.52a40.56,40.56,0,0,0-12-14.85,51.5,51.5,0,0,0-17.27-8.48,74,74,0,0,0-20-2.73q-15.77,0-26.53,4.39t-17.11,11.37a38.11,38.11,0,0,0-8.79,15.45,37.47,37.47,0,0,0-.92,17q1.84,10.6,8.5,17a53.39,53.39,0,0,0,16.37,10.46,123,123,0,0,0,21.35,6.66q11.65,2.58,23.79,5.45c8.07,1.93,15.92,4.2,23.48,6.81a73.23,73.23,0,0,1,20.16,10.61,49.18,49.18,0,0,1,14.09,17.13q5.3,10.47,5.31,26.22,0,30.3-20.9,47t-58.8,16.66a108.48,108.48,0,0,1-31.53-4.4,69.93,69.93,0,0,1-25.16-13.34,61.17,61.17,0,0,1-16.5-22.11q-5.89-13.19-5.92-31.06Z" transform="translate(-17.52 -24)"/><path class="cls-1" d="M2365,1753.09c.78,9.69,3,17.93,6.51,24.69a48.46,48.46,0,0,0,13.63,16.51,54.34,54.34,0,0,0,19.24,9.26,91.53,91.53,0,0,0,23.35,2.87q14.54,0,25.14-3.63a47.64,47.64,0,0,0,17.27-9.85,38.74,38.74,0,0,0,9.86-14.4,47.11,47.11,0,0,0,3.18-17.28q0-12.72-5.76-20.59a44.69,44.69,0,0,0-15-12.9,92.64,92.64,0,0,0-21.21-8q-12-3-24.56-5.9c-8.36-1.94-16.56-4.2-24.53-6.82a78.09,78.09,0,0,1-21.22-10.61,51.16,51.16,0,0,1-15-17.13q-5.74-10.45-5.74-26.51a53.51,53.51,0,0,1,4.68-21.82,54.21,54.21,0,0,1,13.95-18.79,68.14,68.14,0,0,1,23.17-13q14-4.86,32.11-4.86c12.35,0,23.09,1.72,32.29,5.15a64.12,64.12,0,0,1,22.88,14.11,58,58,0,0,1,13.63,20.74,69.2,69.2,0,0,1,4.55,25.16h-19.71c0-8.28-1.44-15.45-4.37-21.52a40.61,40.61,0,0,0-12-14.85,51.18,51.18,0,0,0-17.28-8.48,73.77,73.77,0,0,0-20-2.73q-15.77,0-26.5,4.39t-17.14,11.37a38.88,38.88,0,0,0-8.77,15.45,37.05,37.05,0,0,0-.91,17q1.82,10.6,8.47,17a54.12,54.12,0,0,0,16.37,10.46,123.75,123.75,0,0,0,21.37,6.66q11.67,2.58,23.8,5.45t23.48,6.81A72.94,72.94,0,0,1,2484.4,1717a48.94,48.94,0,0,1,14.08,17.13q5.31,10.47,5.29,26.22,0,30.3-20.9,47t-58.8,16.66a108.52,108.52,0,0,1-31.5-4.4,70,70,0,0,1-25.15-13.34,61.22,61.22,0,0,1-16.52-22.11q-5.93-13.19-5.9-31.06Z" transform="translate(-17.52 -24)"/><path class="cls-1" d="M2655,1818.24V1600h20.61v218.2Z" transform="translate(-17.52 -24)"/><path class="cls-1" d="M2858.36,1627.92h-.63v190.32h-20.59V1600h23.33l126.07,190.62h.61V1600h20.61v218.2h-24Z" transform="translate(-17.52 -24)"/><path class="cls-1" d="M3255.33,1723.09v-17.58h93.34v112.73h-17.58V1781a104.83,104.83,0,0,1-13.17,17.71,72.54,72.54,0,0,1-17.11,13.64,83.32,83.32,0,0,1-22.43,8.65,125.34,125.34,0,0,1-28.79,3,98.42,98.42,0,0,1-38.19-7.29,81.3,81.3,0,0,1-30.3-21.66q-12.73-14.38-19.84-36.22t-7.15-50.9a158.82,158.82,0,0,1,6.07-44.7,100.61,100.61,0,0,1,18.64-36.06,88.32,88.32,0,0,1,31.51-24.1q18.93-8.79,44.69-8.79a117.74,117.74,0,0,1,32.29,4.26,85.5,85.5,0,0,1,27,12.87,77.9,77.9,0,0,1,20.16,21.51,91.18,91.18,0,0,1,11.8,30.47H3325a63.47,63.47,0,0,0-24.85-38,69.73,69.73,0,0,0-20.29-10,78,78,0,0,0-23.35-3.5q-21.49,0-36.95,7.58a67.92,67.92,0,0,0-25.48,21.37q-10,13.8-14.69,33a178.81,178.81,0,0,0-4.69,42.27,111.2,111.2,0,0,0,5.3,34.54,87.65,87.65,0,0,0,15.45,28.79,74.16,74.16,0,0,0,24.85,19.71q14.7,7.27,33.48,7.27a88.44,88.44,0,0,0,18.21-2,71.18,71.18,0,0,0,18.16-6.51,70.42,70.42,0,0,0,16.37-11.82,67.28,67.28,0,0,0,13-17.89,78.29,78.29,0,0,0,7.13-21.51,159.14,159.14,0,0,0,2.27-23.63Z" transform="translate(-17.52 -24)"/></svg>