<?xml version="1.0" encoding="UTF-8"?>
<svg id="Layer_1" data-name="Layer 1" xmlns="http://www.w3.org/2000/svg" viewBox="0 0 502.32 252.2">
  <defs>
    <style>
      .cls-1 {
        fill: #231f20;
      }

      .cls-2 {
        fill: #1e1b17;
      }
    </style>
  </defs>
  <g>
    <g>
      <path class="cls-2" d="M22.73,27.75c0,23.32,64.36,19.78,64.36,56.54,0,20.81-21.85,33.51-46.79,33.51-12.06,0-23.83-2.57-28.56-4.06l-8.79,3.76L.59,74.69h.74c2.44,19.63,12.4,42.37,38.97,42.37,13.43,0,24.06-5.17,24.06-16.09C64.36,76.17,0,78.39,0,42.66,0,22.73,19.56,12.1,42.66,12.1c8.26,0,21.72,2.56,25.69,4.05l8.99-3.76,1.92,36.31h-.74c-1.85-18.16-12.1-35.87-35.87-35.87-12.33,0-19.93,6.05-19.93,14.91h.01Z"/>
      <path class="cls-2" d="M126.8,115.88h11.51v.74h-50.34v-.74h11.51V2.42l-11.81.68v-.74L126.79,0v115.88h0Z"/>
      <path class="cls-2" d="M228.35,77.79c0,23.62-18.89,40-43.1,40s-43.1-16.38-43.1-40,18.89-40,43.1-40,43.1,16.39,43.1,40ZM198.24,77.79c0-21.11-1.48-39.27-12.99-39.27s-12.99,18.16-12.99,39.27c0,22.59,1.48,39.27,12.99,39.27s12.99-16.68,12.99-39.27Z"/>
      <path class="cls-2" d="M324.89,97.28c0,13.58-6.05,20.22-20.67,20.22-12.05,0-17.54-5.71-18.34-17.28-2.64,10.28-14.54,17.58-27.42,17.58-13.88,0-22.73-6.79-22.73-19.48,0-23.33,33.16-19.36,49.89-30.82v-9.62c0-9-1.4-19.34-11.44-19.34-8.04,0-11.74,5.61-11.74,12.33,0,3.76,2.07,7.68,5.17,9.08-.44,8.41-6.42,12.4-13.06,12.4-7.97,0-13.95-5.02-13.95-13.36,0-17.34,23.03-21.18,33.58-21.18,20.59,0,38.9,5.76,38.9,22.88v34.91c0,9.3.29,15.2,4.72,15.2,5.61,0,6.35-9.08,6.35-13.51h.74ZM276.1,108.35c5.98,0,9.52-5.9,9.52-11.07v-28.91c-10.49,6.78-19.78,7.73-19.78,24.48,0,6.64,2.29,15.5,10.26,15.5h0Z"/>
      <path class="cls-2" d="M411.69,115.88h11.51v.74h-47.31v-.74h8.41v-61.63c0-4.13-.07-11.15-7.01-11.15-6.14,0-12.71,6.66-15.28,21.2v51.57h8.49v.74h-47.38v-.74h11.51V40.5l-11.81.68v-.74l39.49-2.36-.52,23.77.09.03c3.36-18.89,16.14-23.94,27.81-23.94,12.84,0,21.99,7.53,21.99,23.77v54.18h.01Z"/>
      <path class="cls-2" d="M502.32,89.01c-6.5,15.65-19.41,28.79-39.93,28.79s-38.01-14.39-38.01-38.68,16.9-41.41,42.73-41.41,37.86,12.92,34.32,31.66h-49.18c.83,21,12.1,31.66,26.52,31.66,7.68,0,17.79-2.8,23.03-12.33l.52.3h0ZM467.12,38.45c-12.77,0-14.91,18.6-14.91,28.42,0,.55,0,1.09.02,1.62h22.93c1.34-9.22,3.4-30.04-8.05-30.04h.01Z"/>
    </g>
    <g>
      <path class="cls-2" d="M284.78,149.72v29.33h-3.82v-29.33h-10.35v-1.45h24.48v1.45h-10.31Z"/>
      <path class="cls-2" d="M310.89,157.6c4.62,0,7.09,2.98,7.09,6.95v14.5h-3.31v-13.8c0-4.57-2.05-6.16-4.94-6.16-3.5,0-6.11,3.5-6.11,6.16v13.8h-3.26v-34.27h3.26v17.77c.7-2.28,3.31-4.94,7.27-4.94h0Z"/>
      <path class="cls-2" d="M333.32,179.52c-5.78,0-9.51-3.73-9.51-10.77,0-6.02,3.4-11.14,9.19-11.14,5.18,0,8.67,4.01,8.67,9.7h-14.22v1.31c0,7.88,2.94,9.51,6.39,9.51s6.39-1.87,6.81-5.46h.65c-.33,3.92-3.82,6.85-7.97,6.85h-.01ZM327.54,166.32h10.49c0-6.02-2.38-7.65-4.99-7.65-2.98,0-5.13,1.63-5.5,7.65Z"/>
      <path class="cls-2" d="M363.63,154.53c0,3.08,1.49,4.94,6.9,7.23,6.06,2.61,8.44,4.99,8.44,9.47,0,4.94-4.57,8.3-9.93,8.3s-9.33-2.7-9.84-8.72h.89c.65,5.32,4.2,7.42,8.86,7.42,4.01,0,6.76-2.29,6.76-6.02,0-3.5-1.96-5.08-7.27-7.32-5.97-2.47-7.79-5.04-7.79-9s2.56-8.07,9.05-8.07c5.08,0,8.07,2.94,8.58,8.02h-.93c-.51-4.43-3.26-6.71-7.6-6.71s-6.11,2.33-6.11,5.41h-.01Z"/>
      <path class="cls-2" d="M397.38,175.37c-.89,1.96-3.17,4.15-6.95,4.15s-5.92-1.77-5.92-4.9c0-4.01,2.71-5.46,7.09-6.3l5.78-1.12v-2.05c0-4.29-2.29-6.06-5.22-6.06s-5.36,1.68-5.55,4.71h-.56c.14-4.24,3.22-6.25,6.95-6.25,5.55,0,7.65,3.64,7.65,7.6v13.9h-3.26v-3.68h0ZM397.38,173.32v-5.13l-3.82.7c-3.5.65-5.41,1.91-5.41,5.36,0,2.38,1.26,3.87,3.82,3.87,2.89,0,5.41-2.89,5.41-4.8Z"/>
      <path class="cls-2" d="M411.51,179.05h-3.26v-34.27h3.26v34.27Z"/>
      <path class="cls-2" d="M427.04,157.6c5.88,0,9.37,4.76,9.37,10.72s-3.5,11.19-9.37,11.19-9.47-4.9-9.47-10.82,3.54-11.1,9.47-11.1h0ZM427.04,178.5c3.45,0,5.83-2.19,5.83-10.17s-2.38-9.65-5.83-9.65-5.83,2.15-5.83,10.03,2.38,9.79,5.83,9.79Z"/>
      <path class="cls-2" d="M453.01,157.6c4.62,0,7.09,2.98,7.09,6.95v14.5h-3.31v-13.8c0-4.57-2.05-6.16-4.94-6.16-3.5,0-6.11,3.5-6.11,6.16v13.8h-3.26v-20.98h3.26v4.48c.7-2.28,3.31-4.94,7.27-4.94h0Z"/>
    </g>
  </g>
  <g>
    <path class="cls-1" d="M91.49,231.24h8.51v1.71h-6.47v5.25h5.98v1.69h-5.98v7.15h-2.04v-15.79Z"/>
    <path class="cls-1" d="M112.37,241.27c0,4.2-2.91,6.02-5.65,6.02-3.07,0-5.44-2.26-5.44-5.83,0-3.79,2.49-6.02,5.63-6.02s5.46,2.36,5.46,5.83ZM103.37,241.4c0,2.49,1.43,4.36,3.44,4.36s3.45-1.85,3.45-4.4c0-1.92-.96-4.36-3.4-4.36s-3.49,2.26-3.49,4.4h0Z"/>
    <path class="cls-1" d="M114.96,239.23c0-1.33-.03-2.49-.1-3.53h1.81l.07,2.23h.1c.52-1.52,1.75-2.49,3.14-2.49.23,0,.39.03.58.07v1.94c-.22-.05-.42-.07-.71-.07-1.45,0-2.49,1.1-2.77,2.65-.04.29-.1.61-.1.96v6.05h-2.04v-7.8h.01Z"/>
    <path class="cls-1" d="M122.72,238.76c0-1.17-.03-2.13-.1-3.07h1.81l.1,1.83h.07c.64-1.07,1.69-2.09,3.56-2.09,1.55,0,2.72.94,3.21,2.27h.04c.35-.64.8-1.13,1.26-1.48.68-.52,1.43-.8,2.5-.8,1.5,0,3.72.98,3.72,4.92v6.67h-2.01v-6.41c0-2.17-.8-3.49-2.46-3.49-1.17,0-2.09.87-2.43,1.88-.1.29-.16.65-.16,1.03v7.01h-2.01v-6.8c0-1.81-.8-3.11-2.36-3.11-1.29,0-2.23,1.03-2.56,2.07-.12.3-.16.65-.16,1.01v6.85h-2.01v-8.28h0Z"/>
    <path class="cls-1" d="M143.41,241.73c.04,2.79,1.82,3.94,3.89,3.94,1.48,0,2.36-.26,3.14-.58l.35,1.48c-.73.33-1.97.71-3.78.71-3.49,0-5.57-2.3-5.57-5.72s2.01-6.12,5.31-6.12c3.7,0,4.69,3.26,4.69,5.34,0,.42-.04.75-.07.96h-7.96,0ZM149.46,240.27c.03-1.3-.54-3.34-2.85-3.34-2.08,0-3,1.92-3.17,3.34h6.02Z"/>
    <path class="cls-1" d="M154.01,239.23c0-1.33-.03-2.49-.1-3.53h1.81l.07,2.23h.1c.52-1.52,1.75-2.49,3.14-2.49.23,0,.39.03.58.07v1.94c-.22-.05-.42-.07-.71-.07-1.45,0-2.49,1.1-2.76,2.65-.04.29-.1.61-.1.96v6.05h-2.04v-7.8h0Z"/>
    <path class="cls-1" d="M161.76,230.4h2.07v16.64h-2.07v-16.64Z"/>
    <path class="cls-1" d="M168.04,235.69l2.49,6.7c.26.75.54,1.64.72,2.32h.04c.22-.68.45-1.55.73-2.36l2.26-6.66h2.17l-3.1,8.09c-1.48,3.89-2.49,5.88-3.89,7.09-1.01.9-2.01,1.24-2.53,1.33l-.52-1.74c.52-.16,1.2-.49,1.81-1.01.56-.45,1.26-1.24,1.74-2.3.1-.22.16-.38.16-.49s-.05-.29-.14-.54l-4.2-10.45h2.26-.01Z"/>
    <path class="cls-1" d="M183.37,231.43c.98-.16,2.27-.3,3.91-.3,2.01,0,3.49.48,4.43,1.32.87.75,1.39,1.9,1.39,3.3s-.42,2.56-1.22,3.37c-1.07,1.14-2.84,1.74-4.82,1.74-.61,0-1.17-.03-1.64-.14v6.33h-2.04v-15.63ZM185.41,239.04c.45.12,1.01.16,1.69.16,2.46,0,3.95-1.2,3.95-3.37s-1.48-3.1-3.72-3.1c-.9,0-1.58.07-1.92.16v6.14h0Z"/>
    <path class="cls-1" d="M201.43,247.04l-.16-1.43h-.07c-.63.9-1.85,1.69-3.47,1.69-2.3,0-3.47-1.62-3.47-3.26,0-2.75,2.43-4.24,6.82-4.21v-.23c0-.94-.26-2.62-2.58-2.62-1.06,0-2.16.33-2.95.84l-.46-1.36c.94-.61,2.3-1.01,3.72-1.01,3.47,0,4.31,2.36,4.31,4.63v4.24c0,.98.05,1.94.19,2.72h-1.89ZM201.13,241.25c-2.26-.04-4.81.35-4.81,2.56,0,1.33.9,1.97,1.94,1.97,1.48,0,2.42-.94,2.75-1.9.07-.22.12-.45.12-.65v-1.97Z"/>
    <path class="cls-1" d="M215.95,243.94c0,1.17.03,2.2.1,3.1h-1.82l-.12-1.85h-.05c-.54.91-1.74,2.11-3.75,2.11-1.78,0-3.91-.98-3.91-4.97v-6.63h2.07v6.28c0,2.16.65,3.62,2.53,3.62,1.39,0,2.34-.96,2.72-1.88.12-.3.19-.68.19-1.06v-6.96h2.07v8.25h0Z"/>
    <path class="cls-1" d="M219.36,230.4h2.07v16.64h-2.07v-16.64Z"/>
    <path class="cls-1" d="M229.93,231.24h2.04v7.61h.07c.42-.61.84-1.17,1.24-1.69l4.82-5.93h2.53l-5.72,6.7,6.17,9.09h-2.42l-5.21-7.76-1.5,1.74v6.02h-2.04v-15.79h.01Z"/>
    <path class="cls-1" d="M243.71,241.73c.04,2.79,1.82,3.94,3.89,3.94,1.48,0,2.36-.26,3.14-.58l.35,1.48c-.73.33-1.97.71-3.78.71-3.49,0-5.57-2.3-5.57-5.72s2.01-6.12,5.31-6.12c3.7,0,4.69,3.26,4.69,5.34,0,.42-.04.75-.07.96h-7.96,0ZM249.76,240.27c.03-1.3-.54-3.34-2.85-3.34-2.08,0-3,1.92-3.17,3.34h6.02Z"/>
    <path class="cls-1" d="M254.3,238.76c0-1.17-.03-2.13-.1-3.07h1.81l.1,1.83h.07c.64-1.07,1.69-2.09,3.56-2.09,1.55,0,2.72.94,3.21,2.27h.04c.35-.64.8-1.13,1.26-1.48.68-.52,1.43-.8,2.5-.8,1.5,0,3.72.98,3.72,4.92v6.67h-2.01v-6.41c0-2.17-.8-3.49-2.46-3.49-1.17,0-2.08.87-2.43,1.88-.1.29-.16.65-.16,1.03v7.01h-2.01v-6.8c0-1.81-.8-3.11-2.36-3.11-1.29,0-2.23,1.03-2.56,2.07-.12.3-.16.65-.16,1.01v6.85h-2.01v-8.28h0Z"/>
    <path class="cls-1" d="M273.84,239.4c0-1.45-.04-2.62-.1-3.7h1.85l.1,1.94h.04c.84-1.39,2.17-2.2,4.04-2.2,2.75,0,4.8,2.32,4.8,5.76,0,4.08-2.49,6.09-5.15,6.09-1.5,0-2.81-.65-3.49-1.78h-.04v6.17h-2.04v-12.29h0ZM275.88,242.41c0,.3.04.58.1.84.38,1.43,1.62,2.42,3.1,2.42,2.17,0,3.45-1.78,3.45-4.38,0-2.27-1.2-4.21-3.37-4.21-1.4,0-2.72,1.01-3.11,2.56-.07.26-.14.56-.14.84v1.94h-.03Z"/>
    <path class="cls-1" d="M294.26,231.24v6.61h7.64v-6.61h2.07v15.79h-2.07v-7.41h-7.64v7.41h-2.04v-15.79h2.04Z"/>
    <path class="cls-1" d="M313.71,247.04l-.16-1.43h-.07c-.64.9-1.85,1.69-3.47,1.69-2.3,0-3.47-1.62-3.47-3.26,0-2.75,2.43-4.24,6.82-4.21v-.23c0-.94-.26-2.62-2.58-2.62-1.06,0-2.16.33-2.95.84l-.46-1.36c.94-.61,2.3-1.01,3.72-1.01,3.47,0,4.31,2.36,4.31,4.63v4.24c0,.98.04,1.94.19,2.72h-1.89ZM313.39,241.25c-2.26-.04-4.8.35-4.8,2.56,0,1.33.9,1.97,1.94,1.97,1.48,0,2.42-.94,2.75-1.9.07-.22.12-.45.12-.65v-1.97h-.01Z"/>
    <path class="cls-1" d="M321.02,232.51c.03.71-.49,1.26-1.32,1.26-.72,0-1.24-.56-1.24-1.26s.54-1.29,1.29-1.29,1.26.56,1.26,1.29ZM318.72,247.04v-11.35h2.07v11.35h-2.07Z"/>
    <path class="cls-1" d="M324.2,239.23c0-1.33-.03-2.49-.1-3.53h1.81l.07,2.23h.1c.52-1.52,1.75-2.49,3.14-2.49.23,0,.39.03.58.07v1.94c-.22-.05-.42-.07-.71-.07-1.45,0-2.49,1.1-2.76,2.65-.05.29-.1.61-.1.96v6.05h-2.04v-7.8h0Z"/>
    <path class="cls-1" d="M341.42,230.4v13.71c0,1.01.03,2.16.1,2.94h-1.85l-.1-1.97h-.04c-.64,1.26-2.01,2.23-3.86,2.23-2.75,0-4.85-2.32-4.85-5.76-.03-3.78,2.32-6.09,5.08-6.09,1.74,0,2.91.82,3.42,1.74h.04v-6.77h2.07v-.03ZM339.37,240.31c0-.26-.03-.61-.1-.87-.3-1.3-1.43-2.39-2.98-2.39-2.13,0-3.4,1.88-3.4,4.38,0,2.3,1.13,4.2,3.36,4.2,1.39,0,2.65-.91,3.02-2.46.07-.29.1-.56.1-.9v-1.97h0Z"/>
    <path class="cls-1" d="M344.84,239.23c0-1.33-.03-2.49-.1-3.53h1.81l.07,2.23h.1c.52-1.52,1.75-2.49,3.14-2.49.23,0,.39.03.58.07v1.94c-.22-.05-.42-.07-.71-.07-1.45,0-2.49,1.1-2.76,2.65-.05.29-.1.61-.1.96v6.05h-2.04v-7.8h0Z"/>
    <path class="cls-1" d="M353.42,241.73c.04,2.79,1.82,3.94,3.89,3.94,1.48,0,2.36-.26,3.14-.58l.35,1.48c-.73.33-1.97.71-3.78.71-3.49,0-5.57-2.3-5.57-5.72s2.01-6.12,5.31-6.12c3.7,0,4.69,3.26,4.69,5.34,0,.42-.04.75-.07.96h-7.96ZM359.47,240.27c.03-1.3-.54-3.34-2.85-3.34-2.08,0-3,1.92-3.17,3.34h6.02Z"/>
    <path class="cls-1" d="M363.73,244.93c.61.39,1.69.82,2.72.82,1.5,0,2.2-.75,2.2-1.69s-.58-1.52-2.11-2.09c-2.04-.72-3-1.85-3-3.21,0-1.82,1.48-3.33,3.91-3.33,1.16,0,2.16.33,2.79.71l-.52,1.5c-.45-.29-1.26-.65-2.32-.65-1.22,0-1.9.71-1.9,1.55,0,.94.68,1.36,2.16,1.92,1.97.75,2.98,1.74,2.98,3.42,0,2-1.55,3.4-4.24,3.4-1.24,0-2.39-.3-3.18-.77l.52-1.58h0Z"/>
    <path class="cls-1" d="M373,244.93c.61.39,1.69.82,2.72.82,1.5,0,2.2-.75,2.2-1.69s-.58-1.52-2.11-2.09c-2.04-.72-3-1.85-3-3.21,0-1.82,1.48-3.33,3.91-3.33,1.16,0,2.16.33,2.79.71l-.52,1.5c-.45-.29-1.26-.65-2.32-.65-1.22,0-1.9.71-1.9,1.55,0,.94.68,1.36,2.16,1.92,1.97.75,2.98,1.74,2.98,3.42,0,2-1.55,3.4-4.24,3.4-1.24,0-2.39-.3-3.18-.77l.52-1.58h0Z"/>
    <path class="cls-1" d="M384.87,232.51c.03.71-.49,1.26-1.32,1.26-.72,0-1.24-.56-1.24-1.26s.54-1.29,1.29-1.29,1.26.56,1.26,1.29ZM382.57,247.04v-11.35h2.07v11.35h-2.07Z"/>
    <path class="cls-1" d="M388.05,238.76c0-1.17-.03-2.13-.1-3.07h1.82l.12,1.88h.04c.56-1.07,1.88-2.13,3.75-2.13,1.58,0,4.01.94,4.01,4.82v6.77h-2.07v-6.54c0-1.82-.68-3.36-2.62-3.36-1.36,0-2.42.96-2.76,2.11-.1.26-.14.61-.14.96v6.82h-2.07v-8.28h0Z"/>
    <path class="cls-1" d="M410.83,235.69c-.05.82-.1,1.74-.1,3.11v6.58c0,2.6-.52,4.2-1.62,5.18-1.1,1.03-2.69,1.36-4.13,1.36s-2.85-.33-3.78-.94l.52-1.58c.75.46,1.92.9,3.33.9,2.11,0,3.66-1.1,3.66-3.95v-1.26h-.04c-.64,1.06-1.85,1.9-3.62,1.9-2.81,0-4.82-2.39-4.82-5.53,0-3.85,2.5-6.02,5.11-6.02,1.97,0,3.04,1.03,3.53,1.97h.04l.1-1.71h1.82ZM408.69,240.17c0-.35-.03-.65-.12-.94-.38-1.2-1.39-2.17-2.88-2.17-1.97,0-3.37,1.66-3.37,4.29,0,2.23,1.13,4.08,3.36,4.08,1.26,0,2.42-.8,2.85-2.11.12-.35.16-.75.16-1.1v-2.04h0Z"/>
  </g>
</svg>