<?xml version="1.0" encoding="UTF-8"?>
<svg id="Layer_1" data-name="Layer 1" xmlns="http://www.w3.org/2000/svg" viewBox="0 0 502.32 332.81">
  <defs>
    <style>
      .cls-1 {
        fill: #010101;
      }

      .cls-2 {
        fill: #231f20;
      }

      .cls-3 {
        fill: #1e1b17;
      }
    </style>
  </defs>
  <g>
    <g>
      <path class="cls-3" d="M22.73,108.35c0,23.32,64.36,19.78,64.36,56.54,0,20.81-21.85,33.51-46.79,33.51-12.06,0-23.83-2.57-28.56-4.06l-8.79,3.76-2.36-42.81h.74c2.44,19.63,12.4,42.37,38.97,42.37,13.43,0,24.06-5.17,24.06-16.09,0-24.8-64.36-22.58-64.36-58.31,0-19.93,19.56-30.56,42.66-30.56,8.26,0,21.72,2.56,25.69,4.05l8.99-3.76,1.92,36.31h-.74c-1.85-18.16-12.1-35.87-35.87-35.87-12.33,0-19.93,6.05-19.93,14.91h0Z"/>
      <path class="cls-3" d="M126.8,196.48h11.51v.74h-50.34v-.74h11.51v-113.46l-11.81.68v-.74l39.12-2.36v115.88Z"/>
      <path class="cls-3" d="M228.35,158.39c0,23.62-18.89,40-43.1,40s-43.1-16.38-43.1-40,18.89-40,43.1-40,43.1,16.39,43.1,40ZM198.24,158.39c0-21.11-1.48-39.27-12.99-39.27s-12.99,18.16-12.99,39.27c0,22.59,1.48,39.27,12.99,39.27s12.99-16.68,12.99-39.27Z"/>
      <path class="cls-3" d="M324.89,177.88c0,13.58-6.05,20.22-20.67,20.22-12.05,0-17.54-5.71-18.34-17.28-2.64,10.28-14.54,17.58-27.42,17.58-13.88,0-22.73-6.79-22.73-19.48,0-23.33,33.16-19.36,49.89-30.82v-9.62c0-9-1.4-19.34-11.44-19.34-8.04,0-11.74,5.61-11.74,12.33,0,3.76,2.07,7.68,5.17,9.08-.44,8.41-6.42,12.4-13.06,12.4-7.97,0-13.95-5.02-13.95-13.36,0-17.34,23.03-21.18,33.58-21.18,20.59,0,38.9,5.76,38.9,22.88v34.91c0,9.3.29,15.2,4.72,15.2,5.61,0,6.35-9.08,6.35-13.51h.74ZM276.1,188.95c5.98,0,9.52-5.9,9.52-11.07v-28.91c-10.49,6.78-19.78,7.73-19.78,24.48,0,6.64,2.29,15.5,10.26,15.5h0Z"/>
      <path class="cls-3" d="M411.69,196.48h11.51v.74h-47.31v-.74h8.41v-61.63c0-4.13-.07-11.15-7.01-11.15-6.14,0-12.71,6.66-15.28,21.2v51.57h8.49v.74h-47.38v-.74h11.51v-75.37l-11.81.68v-.74l39.49-2.36-.52,23.77.09.03c3.36-18.89,16.14-23.94,27.81-23.94,12.84,0,21.99,7.53,21.99,23.77v54.18Z"/>
      <path class="cls-3" d="M502.32,169.61c-6.5,15.65-19.41,28.79-39.93,28.79s-38.01-14.39-38.01-38.68,16.9-41.41,42.73-41.41,37.86,12.92,34.32,31.66h-49.18c.83,21,12.1,31.66,26.52,31.66,7.68,0,17.79-2.8,23.03-12.33l.52.3ZM467.12,119.05c-12.77,0-14.91,18.6-14.91,28.42,0,.55,0,1.09.02,1.62h22.93c1.34-9.22,3.4-30.04-8.05-30.04h0Z"/>
    </g>
    <g>
      <path class="cls-3" d="M284.78,230.32v29.33h-3.82v-29.33h-10.35v-1.45h24.48v1.45h-10.31Z"/>
      <path class="cls-3" d="M310.89,238.2c4.62,0,7.09,2.98,7.09,6.95v14.5h-3.31v-13.8c0-4.57-2.05-6.16-4.94-6.16-3.5,0-6.11,3.5-6.11,6.16v13.8h-3.26v-34.27h3.26v17.77c.7-2.28,3.31-4.94,7.27-4.94Z"/>
      <path class="cls-3" d="M333.32,260.12c-5.78,0-9.51-3.73-9.51-10.77,0-6.02,3.4-11.14,9.19-11.14,5.18,0,8.67,4.01,8.67,9.7h-14.22v1.31c0,7.88,2.94,9.51,6.39,9.51s6.39-1.87,6.81-5.46h.65c-.33,3.92-3.82,6.85-7.97,6.85ZM327.54,246.92h10.49c0-6.02-2.38-7.65-4.99-7.65-2.98,0-5.13,1.63-5.5,7.65Z"/>
      <path class="cls-3" d="M363.63,235.13c0,3.08,1.49,4.94,6.9,7.23,6.06,2.61,8.44,4.99,8.44,9.47,0,4.94-4.57,8.3-9.93,8.3s-9.33-2.7-9.84-8.72h.89c.65,5.32,4.2,7.42,8.86,7.42,4.01,0,6.76-2.29,6.76-6.02,0-3.5-1.96-5.08-7.27-7.32-5.97-2.47-7.79-5.04-7.79-9s2.56-8.07,9.05-8.07c5.08,0,8.07,2.94,8.58,8.02h-.93c-.51-4.43-3.26-6.71-7.6-6.71s-6.11,2.33-6.11,5.41Z"/>
      <path class="cls-3" d="M397.38,255.97c-.89,1.96-3.17,4.15-6.95,4.15s-5.92-1.77-5.92-4.9c0-4.01,2.71-5.46,7.09-6.3l5.78-1.12v-2.05c0-4.29-2.29-6.06-5.22-6.06s-5.36,1.68-5.55,4.71h-.56c.14-4.24,3.22-6.25,6.95-6.25,5.55,0,7.65,3.64,7.65,7.6v13.9h-3.26v-3.68ZM397.38,253.92v-5.13l-3.82.7c-3.5.65-5.41,1.91-5.41,5.36,0,2.38,1.26,3.87,3.82,3.87,2.89,0,5.41-2.89,5.41-4.8Z"/>
      <path class="cls-3" d="M411.51,259.65h-3.26v-34.27h3.26v34.27Z"/>
      <path class="cls-3" d="M427.04,238.2c5.88,0,9.37,4.76,9.37,10.72s-3.5,11.19-9.37,11.19-9.47-4.9-9.47-10.82,3.54-11.1,9.47-11.1ZM427.04,259.1c3.45,0,5.83-2.19,5.83-10.17s-2.38-9.65-5.83-9.65-5.83,2.15-5.83,10.03,2.38,9.79,5.83,9.79Z"/>
      <path class="cls-3" d="M453.01,238.2c4.62,0,7.09,2.98,7.09,6.95v14.5h-3.31v-13.8c0-4.57-2.05-6.16-4.94-6.16-3.5,0-6.11,3.5-6.11,6.16v13.8h-3.26v-20.98h3.26v4.48c.7-2.28,3.31-4.94,7.27-4.94Z"/>
    </g>
  </g>
  <g>
    <path class="cls-1" d="M125.21,26.08h-4.08c-.24,0-.28-.2-.08-.36.75-.71,1.78-2.45,3.29-5.86L132.69.87h2.73l7.28,18.8c1.03,2.61,2.18,4.91,3.01,5.98.12.16.16.44-.16.44h-5.94c-.4,0-.44-.12-.44-.44.12-1.03-.63-3.32-1.7-6.02l-.83-2.26h-8.79l-1.03,2.45c-1.27,3.01-1.54,5.3-1.27,5.9.04.16-.04.36-.36.36ZM128.49,15.79h7.52l-3.56-9.5-3.96,9.5Z"/>
    <path class="cls-1" d="M160.04,3.4c-.32-.36-1.66-1.78-1.9-2.06-.12-.12-.08-.36.12-.36h5.3c.55,0,.67.04.99.44l14.05,17.3V6.45c0-2.89-.55-4.55-.91-5.15-.08-.16-.04-.32.12-.32h3.68c.12,0,.2.16.08.32-.44.67-.91,2.34-.91,5.15v19.63c-.32.08-1.9.12-2.14-.04l-16.39-20.11v14.68c0,2.89.51,4.55.87,5.11.08.16.04.36-.12.36h-3.64c-.12,0-.2-.16-.08-.36.4-.63.87-2.3.87-5.11V3.4Z"/>
    <path class="cls-1" d="M195.97,24.06c2.45,0,4-.75,5.42-1.9.12-.12.75.91.59,1.15-1.5,2.06-3.84,3.32-7.16,3.32-5.58,0-9.02-3.05-9.02-9.06s3.64-9.42,8.95-9.42,7.64,3.48,7.64,8.27c0,.32-.16.55-.51.55l-11.48.04v.47c.04,4.83,2.3,6.57,5.58,6.57ZM190.47,15.63l7.68-.2c.12-3.36-1.11-5.62-3.44-5.62-2.57,0-3.92,2.1-4.24,5.82Z"/>
    <path class="cls-1" d="M218.69,15.95l-4.59,10.21h-2.89l-4.91-13.06c-.71-1.82-1.54-3.44-2.14-4.08-.16-.2-.12-.36.08-.36h5.11c.32,0,.24.16.24.28-.08.67.2,1.5,1.15,4.16l3.25,8.83,3.72-8.59-.32-.91c-.51-1.5-1.11-2.89-1.62-3.44-.16-.2-.12-.32.08-.32h4.83c.32,0,.24.16.24.32-.04.71.08,1.39,1.11,4.12l3.36,8.71,2.89-8.83c.71-2.14,1.07-3.56.75-4-.04-.12-.04-.32.24-.32h3.6c.16,0,.2.2.04.32-.47.44-1.31,1.58-2.22,4l-4.95,13.18h-2.89l-4.16-10.21Z"/>
    <path class="cls-1" d="M266.03,24.1c-1.58,1.39-4.2,2.57-8.67,2.57-7.12,0-12.71-4.31-12.71-12.98s5.7-13.3,13.14-13.3c3.88,0,6.49.67,7.8,1.31.67.36.83.47.63,1.35l-.47,2.37c-.2.2-.59.16-.71.04-1.07-1.35-3.17-3.25-6.97-3.25-5.22,0-7.84,4.39-7.84,11.44s2.93,10.65,8.47,10.65c3.44,0,5.7-1.07,7.28-2.22.28-.12.28,1.78.04,2.02Z"/>
    <path class="cls-1" d="M270.3,4.51c0-2.02-.71-3.21-1.15-3.68-.16-.24-.08-.4.04-.4l5.34-.44v11.12c1.42-1.39,3.76-2.81,6.17-2.81,3.76,0,5.82,1.9,5.82,6.77v5.58c0,2.81.12,4.47.59,5.07.12.16.12.36-.2.36h-5.03c-.32,0-.32-.2-.2-.32.47-.67.59-2.34.59-5.11v-4.87c0-3.44-.99-4.59-3.52-4.59-1.9,0-3.32.67-4.23,1.07v8.39c0,2.81.08,4.47.59,5.11.12.12.12.32-.24.32h-5.03c-.32,0-.32-.2-.2-.32.51-.67.63-2.3.63-5.11V4.51Z"/>
    <path class="cls-1" d="M307.11,25.73c.12.2.12.36-.2.36h-4.12c-.2,0-.28-.16-.32-.32-.04-.16-.24-1.03-.32-1.46-1.46,1.27-3.29,2.06-5.54,2.06-3.21,0-5.07-1.54-5.07-4.47,0-3.88,3.32-5.18,7.52-5.62.99-.12,2.18-.16,3.05-.12v-.75c0-3.52-1.19-4.47-3.84-4.47-2.1,0-4.08.79-5.07,1.31-.04,0-.24-1.19-.2-1.23,1.54-1.42,4.39-2.85,7.28-2.85,3.92,0,5.98,1.78,5.98,6.77v5.74c0,2.85.36,4.47.83,5.07ZM298.87,24.06c1.11,0,2.34-.4,3.25-1.03v-5.54c-.83.04-1.94.12-2.77.28-1.98.4-3.4,1.39-3.4,3.48s1.07,2.81,2.93,2.81Z"/>
    <path class="cls-1" d="M312.89,13.06c0-1.98-.67-3.17-1.15-3.64-.16-.24-.08-.4.04-.4l5.34-.4v2.41c1.42-1.35,3.64-2.65,5.94-2.65,4.2,0,6.65,3.01,6.65,8.19,0,6.25-3.76,9.93-9.26,9.93-1.19,0-2.34-.2-3.32-.71v3.56c0,2.81.32,4.47.83,5.07.12.16.12.36-.24.36h-5.26c-.32,0-.32-.2-.2-.36.47-.63.63-2.26.63-5.07V13.06ZM317.12,12.19v11.68c.59.44,1.62.91,3.05.91,3.44,0,4.99-2.61,4.99-7.52s-1.62-6.1-4.16-6.1c-1.58,0-2.97.55-3.88,1.03Z"/>
    <path class="cls-1" d="M340.04,4.12v4.83h4.83v2.02h-4.83v8.43c0,3.4.63,4.63,3.09,4.63.99,0,1.9-.16,2.85-.55.04,0,.24,1.07.2,1.15-.67.95-2.41,1.9-4.91,1.9-4.08,0-5.46-2.26-5.46-6.41v-9.14h-2.53v-2.02h2.53v-4.83h4.23Z"/>
    <path class="cls-1" d="M358.48,24.06c2.45,0,4-.75,5.42-1.9.12-.12.75.91.59,1.15-1.5,2.06-3.84,3.32-7.16,3.32-5.58,0-9.02-3.05-9.02-9.06s3.64-9.42,8.95-9.42,7.64,3.48,7.64,8.27c0,.32-.16.55-.52.55l-11.48.04v.47c.04,4.83,2.3,6.57,5.58,6.57ZM352.98,15.63l7.68-.2c.12-3.36-1.11-5.62-3.44-5.62-2.57,0-3.92,2.1-4.23,5.82Z"/>
    <path class="cls-1" d="M369.6,13.1c0-2.02-.67-3.13-1.15-3.68-.2-.2-.08-.4.04-.4l5.34-.4v3.09c.87-1.23,2.81-3.4,5.7-3.4.71,0,1.5.24,1.86.47l-.36,3.44c-.04.2-.28.16-.4.12-.83-.55-1.9-.79-2.93-.79-1.58,0-3.05.63-3.88,1.19v7.92c0,2.81.12,4.47.63,5.07.12.16.12.36-.24.36h-5.07c-.32,0-.32-.2-.2-.36.51-.63.63-2.26.63-5.07v-7.56Z"/>
  </g>
  <g>
    <path class="cls-2" d="M133.68,317.38h6.26v1.26h-4.76v3.86h4.4v1.24h-4.4v5.26h-1.5v-11.62Z"/>
    <path class="cls-2" d="M149.04,324.76c0,3.09-2.14,4.43-4.16,4.43-2.26,0-4-1.66-4-4.29,0-2.79,1.83-4.43,4.14-4.43s4.02,1.74,4.02,4.29ZM142.42,324.85c0,1.83,1.05,3.21,2.53,3.21s2.54-1.36,2.54-3.24c0-1.41-.71-3.21-2.5-3.21s-2.57,1.66-2.57,3.24Z"/>
    <path class="cls-2" d="M150.95,323.26c0-.98-.02-1.83-.07-2.6h1.33l.05,1.64h.07c.38-1.12,1.29-1.83,2.31-1.83.17,0,.29.02.43.05v1.43c-.16-.04-.31-.05-.52-.05-1.07,0-1.83.81-2.04,1.95-.03.21-.07.45-.07.71v4.45h-1.5v-5.74Z"/>
    <path class="cls-2" d="M156.66,322.91c0-.86-.02-1.57-.07-2.26h1.33l.07,1.35h.05c.47-.79,1.24-1.54,2.62-1.54,1.14,0,2,.69,2.36,1.67h.03c.26-.47.59-.83.93-1.09.5-.38,1.05-.59,1.84-.59,1.1,0,2.74.72,2.74,3.62v4.91h-1.48v-4.72c0-1.6-.59-2.57-1.81-2.57-.86,0-1.54.64-1.79,1.38-.07.21-.12.48-.12.76v5.16h-1.48v-5c0-1.33-.59-2.29-1.74-2.29-.95,0-1.64.76-1.88,1.52-.09.22-.12.48-.12.74v5.04h-1.48v-6.09Z"/>
    <path class="cls-2" d="M171.88,325.1c.03,2.05,1.34,2.9,2.86,2.9,1.09,0,1.74-.19,2.31-.43l.26,1.09c-.54.24-1.45.52-2.78.52-2.57,0-4.1-1.69-4.1-4.21s1.48-4.5,3.91-4.5c2.72,0,3.45,2.4,3.45,3.93,0,.31-.03.55-.05.71h-5.86ZM176.33,324.02c.02-.96-.4-2.46-2.1-2.46-1.53,0-2.21,1.41-2.33,2.46h4.43Z"/>
    <path class="cls-2" d="M179.68,323.26c0-.98-.02-1.83-.07-2.6h1.33l.05,1.64h.07c.38-1.12,1.29-1.83,2.31-1.83.17,0,.29.02.43.05v1.43c-.16-.04-.31-.05-.52-.05-1.07,0-1.83.81-2.03,1.95-.03.21-.07.45-.07.71v4.45h-1.5v-5.74Z"/>
    <path class="cls-2" d="M185.38,316.76h1.52v12.24h-1.52v-12.24Z"/>
    <path class="cls-2" d="M190,320.65l1.83,4.93c.19.55.4,1.21.53,1.71h.03c.16-.5.33-1.14.54-1.74l1.66-4.9h1.6l-2.28,5.95c-1.09,2.86-1.83,4.33-2.86,5.22-.74.66-1.48.91-1.86.98l-.38-1.28c.38-.12.88-.36,1.33-.74.41-.33.93-.91,1.28-1.69.07-.16.12-.28.12-.36s-.04-.21-.1-.4l-3.09-7.69h1.66Z"/>
    <path class="cls-2" d="M201.28,317.52c.72-.12,1.67-.22,2.88-.22,1.48,0,2.57.35,3.26.97.64.55,1.02,1.4,1.02,2.43s-.31,1.88-.9,2.48c-.79.84-2.09,1.28-3.55,1.28-.45,0-.86-.02-1.21-.1v4.66h-1.5v-11.48ZM202.78,323.12c.33.09.74.12,1.24.12,1.81,0,2.91-.88,2.91-2.48s-1.09-2.28-2.74-2.28c-.66,0-1.16.05-1.41.12v4.52Z"/>
    <path class="cls-2" d="M214.57,329l-.12-1.05h-.05c-.46.66-1.36,1.24-2.55,1.24-1.69,0-2.55-1.19-2.55-2.4,0-2.02,1.79-3.12,5.02-3.1v-.17c0-.69-.19-1.93-1.9-1.93-.78,0-1.59.24-2.17.62l-.34-1c.69-.45,1.69-.74,2.74-.74,2.55,0,3.17,1.74,3.17,3.41v3.12c0,.72.04,1.43.14,2h-1.38ZM214.35,324.74c-1.66-.03-3.54.26-3.54,1.88,0,.98.66,1.45,1.43,1.45,1.09,0,1.78-.69,2.02-1.4.05-.16.09-.33.09-.48v-1.45Z"/>
    <path class="cls-2" d="M225.25,326.72c0,.86.02,1.62.07,2.28h-1.34l-.09-1.36h-.04c-.4.67-1.28,1.55-2.76,1.55-1.31,0-2.88-.72-2.88-3.66v-4.88h1.52v4.62c0,1.59.48,2.66,1.86,2.66,1.02,0,1.72-.71,2-1.38.09-.22.14-.5.14-.78v-5.12h1.52v6.07Z"/>
    <path class="cls-2" d="M227.76,316.76h1.52v12.24h-1.52v-12.24Z"/>
    <path class="cls-2" d="M235.54,317.38h1.5v5.6h.05c.31-.45.62-.86.91-1.24l3.55-4.36h1.86l-4.21,4.93,4.54,6.69h-1.78l-3.83-5.71-1.1,1.28v4.43h-1.5v-11.62Z"/>
    <path class="cls-2" d="M245.68,325.1c.03,2.05,1.34,2.9,2.86,2.9,1.09,0,1.74-.19,2.31-.43l.26,1.09c-.54.24-1.45.52-2.78.52-2.57,0-4.1-1.69-4.1-4.21s1.48-4.5,3.91-4.5c2.72,0,3.45,2.4,3.45,3.93,0,.31-.03.55-.05.71h-5.86ZM250.13,324.02c.02-.96-.4-2.46-2.1-2.46-1.53,0-2.21,1.41-2.33,2.46h4.43Z"/>
    <path class="cls-2" d="M253.47,322.91c0-.86-.02-1.57-.07-2.26h1.33l.07,1.35h.05c.47-.79,1.24-1.54,2.62-1.54,1.14,0,2,.69,2.36,1.67h.03c.26-.47.59-.83.93-1.09.5-.38,1.05-.59,1.84-.59,1.1,0,2.74.72,2.74,3.62v4.91h-1.48v-4.72c0-1.6-.59-2.57-1.81-2.57-.86,0-1.53.64-1.79,1.38-.07.21-.12.48-.12.76v5.16h-1.48v-5c0-1.33-.59-2.29-1.74-2.29-.95,0-1.64.76-1.88,1.52-.09.22-.12.48-.12.74v5.04h-1.48v-6.09Z"/>
    <path class="cls-2" d="M267.85,323.38c0-1.07-.03-1.93-.07-2.72h1.36l.07,1.43h.03c.62-1.02,1.6-1.62,2.97-1.62,2.02,0,3.53,1.71,3.53,4.24,0,3-1.83,4.48-3.79,4.48-1.1,0-2.07-.48-2.57-1.31h-.03v4.54h-1.5v-9.04ZM269.35,325.6c0,.22.03.43.07.62.28,1.05,1.19,1.78,2.28,1.78,1.6,0,2.54-1.31,2.54-3.22,0-1.67-.88-3.1-2.48-3.1-1.03,0-2,.74-2.29,1.88-.05.19-.1.41-.1.62v1.43Z"/>
    <path class="cls-2" d="M282.87,317.38v4.86h5.62v-4.86h1.52v11.62h-1.52v-5.45h-5.62v5.45h-1.5v-11.62h1.5Z"/>
    <path class="cls-2" d="M297.18,329l-.12-1.05h-.05c-.47.66-1.36,1.24-2.55,1.24-1.69,0-2.55-1.19-2.55-2.4,0-2.02,1.79-3.12,5.02-3.1v-.17c0-.69-.19-1.93-1.9-1.93-.78,0-1.59.24-2.17.62l-.34-1c.69-.45,1.69-.74,2.74-.74,2.55,0,3.17,1.74,3.17,3.41v3.12c0,.72.03,1.43.14,2h-1.38ZM296.95,324.74c-1.66-.03-3.53.26-3.53,1.88,0,.98.66,1.45,1.43,1.45,1.09,0,1.78-.69,2.02-1.4.05-.16.09-.33.09-.48v-1.45Z"/>
    <path class="cls-2" d="M302.56,318.31c.02.52-.36.93-.97.93-.53,0-.91-.41-.91-.93s.4-.95.95-.95.93.41.93.95ZM300.87,329v-8.35h1.52v8.35h-1.52Z"/>
    <path class="cls-2" d="M304.9,323.26c0-.98-.02-1.83-.07-2.6h1.33l.05,1.64h.07c.38-1.12,1.29-1.83,2.31-1.83.17,0,.29.02.43.05v1.43c-.16-.04-.31-.05-.52-.05-1.07,0-1.83.81-2.03,1.95-.04.21-.07.45-.07.71v4.45h-1.5v-5.74Z"/>
    <path class="cls-2" d="M317.57,316.76v10.09c0,.74.02,1.59.07,2.16h-1.36l-.07-1.45h-.03c-.47.93-1.48,1.64-2.84,1.64-2.02,0-3.57-1.71-3.57-4.24-.02-2.78,1.71-4.48,3.74-4.48,1.28,0,2.14.6,2.52,1.28h.03v-4.98h1.52ZM316.06,324.05c0-.19-.02-.45-.07-.64-.22-.96-1.05-1.76-2.19-1.76-1.57,0-2.5,1.38-2.5,3.22,0,1.69.83,3.09,2.47,3.09,1.02,0,1.95-.67,2.22-1.81.05-.21.07-.41.07-.66v-1.45Z"/>
    <path class="cls-2" d="M320.09,323.26c0-.98-.02-1.83-.07-2.6h1.33l.05,1.64h.07c.38-1.12,1.29-1.83,2.31-1.83.17,0,.29.02.43.05v1.43c-.16-.04-.31-.05-.52-.05-1.07,0-1.83.81-2.03,1.95-.04.21-.07.45-.07.71v4.45h-1.5v-5.74Z"/>
    <path class="cls-2" d="M326.4,325.1c.03,2.05,1.34,2.9,2.86,2.9,1.09,0,1.74-.19,2.31-.43l.26,1.09c-.54.24-1.45.52-2.78.52-2.57,0-4.1-1.69-4.1-4.21s1.48-4.5,3.91-4.5c2.72,0,3.45,2.4,3.45,3.93,0,.31-.03.55-.05.71h-5.86ZM330.85,324.02c.02-.96-.4-2.46-2.1-2.46-1.53,0-2.21,1.41-2.33,2.46h4.43Z"/>
    <path class="cls-2" d="M333.99,327.45c.45.29,1.24.6,2,.6,1.1,0,1.62-.55,1.62-1.24,0-.72-.43-1.12-1.55-1.54-1.5-.53-2.21-1.36-2.21-2.36,0-1.34,1.09-2.45,2.88-2.45.85,0,1.59.24,2.05.52l-.38,1.1c-.33-.21-.93-.48-1.71-.48-.9,0-1.4.52-1.4,1.14,0,.69.5,1,1.59,1.41,1.45.55,2.19,1.28,2.19,2.52,0,1.47-1.14,2.5-3.12,2.5-.91,0-1.76-.22-2.34-.57l.38-1.16Z"/>
    <path class="cls-2" d="M340.81,327.45c.45.29,1.24.6,2,.6,1.1,0,1.62-.55,1.62-1.24,0-.72-.43-1.12-1.55-1.54-1.5-.53-2.21-1.36-2.21-2.36,0-1.34,1.09-2.45,2.88-2.45.85,0,1.59.24,2.05.52l-.38,1.1c-.33-.21-.93-.48-1.71-.48-.9,0-1.4.52-1.4,1.14,0,.69.5,1,1.59,1.41,1.45.55,2.19,1.28,2.19,2.52,0,1.47-1.14,2.5-3.12,2.5-.91,0-1.76-.22-2.34-.57l.38-1.16Z"/>
    <path class="cls-2" d="M349.54,318.31c.02.52-.36.93-.97.93-.53,0-.91-.41-.91-.93s.4-.95.95-.95.93.41.93.95ZM347.85,329v-8.35h1.52v8.35h-1.52Z"/>
    <path class="cls-2" d="M351.88,322.91c0-.86-.02-1.57-.07-2.26h1.34l.09,1.38h.03c.41-.79,1.38-1.57,2.76-1.57,1.16,0,2.95.69,2.95,3.55v4.98h-1.52v-4.81c0-1.34-.5-2.47-1.93-2.47-1,0-1.78.71-2.03,1.55-.07.19-.1.45-.1.71v5.02h-1.52v-6.09Z"/>
    <path class="cls-2" d="M368.64,320.65c-.04.6-.07,1.28-.07,2.29v4.84c0,1.91-.38,3.09-1.19,3.81-.81.76-1.98,1-3.04,1s-2.1-.24-2.78-.69l.38-1.16c.55.34,1.41.66,2.45.66,1.55,0,2.69-.81,2.69-2.91v-.93h-.03c-.47.78-1.36,1.4-2.66,1.4-2.07,0-3.55-1.76-3.55-4.07,0-2.83,1.84-4.43,3.76-4.43,1.45,0,2.24.76,2.6,1.45h.03l.07-1.26h1.33ZM367.07,323.95c0-.26-.02-.48-.09-.69-.28-.88-1.02-1.6-2.12-1.6-1.45,0-2.48,1.22-2.48,3.16,0,1.64.83,3,2.47,3,.93,0,1.78-.59,2.1-1.55.09-.26.12-.55.12-.81v-1.5Z"/>
  </g>
</svg>