<?xml version="1.0" encoding="UTF-8"?>
<svg id="Layer_1" data-name="Layer 1" xmlns="http://www.w3.org/2000/svg" viewBox="0 0 502.32 179.52">
  <defs>
    <style>
      .cls-1 {
        fill: #1e1b17;
      }
    </style>
  </defs>
  <g>
    <path class="cls-1" d="M22.73,27.75c0,23.32,64.36,19.78,64.36,56.54,0,20.81-21.85,33.51-46.79,33.51-12.06,0-23.83-2.57-28.56-4.06l-8.79,3.76L.59,74.69h.74c2.44,19.63,12.4,42.37,38.97,42.37,13.43,0,24.06-5.17,24.06-16.09C64.36,76.17,0,78.38,0,42.66,0,22.73,19.56,12.1,42.66,12.1c8.26,0,21.72,2.56,25.69,4.05l8.99-3.76,1.92,36.31h-.74c-1.85-18.16-12.1-35.87-35.87-35.87-12.33,0-19.93,6.05-19.93,14.91h0Z"/>
    <path class="cls-1" d="M126.8,115.88h11.51v.74h-50.34v-.74h11.51V2.42l-11.81.68v-.74L126.8,0v115.88Z"/>
    <path class="cls-1" d="M228.35,77.79c0,23.62-18.89,40-43.1,40s-43.1-16.38-43.1-40,18.89-40,43.1-40,43.1,16.39,43.1,40ZM198.24,77.79c0-21.11-1.48-39.27-12.99-39.27s-12.99,18.16-12.99,39.27c0,22.59,1.48,39.27,12.99,39.27s12.99-16.68,12.99-39.27Z"/>
    <path class="cls-1" d="M324.89,97.28c0,13.58-6.05,20.22-20.67,20.22-12.05,0-17.54-5.71-18.34-17.28-2.64,10.28-14.54,17.58-27.42,17.58-13.88,0-22.73-6.79-22.73-19.48,0-23.33,33.16-19.36,49.89-30.82v-9.62c0-9-1.4-19.34-11.44-19.34-8.04,0-11.74,5.61-11.74,12.33,0,3.76,2.07,7.68,5.17,9.08-.44,8.41-6.42,12.4-13.06,12.4-7.97,0-13.95-5.02-13.95-13.36,0-17.34,23.03-21.18,33.58-21.18,20.59,0,38.9,5.76,38.9,22.88v34.91c0,9.3.29,15.2,4.72,15.2,5.61,0,6.35-9.08,6.35-13.51h.74ZM276.1,108.35c5.98,0,9.52-5.9,9.52-11.07v-28.91c-10.49,6.78-19.78,7.73-19.78,24.48,0,6.64,2.29,15.5,10.26,15.5h0Z"/>
    <path class="cls-1" d="M411.69,115.88h11.51v.74h-47.31v-.74h8.41v-61.63c0-4.13-.07-11.15-7.01-11.15-6.14,0-12.71,6.66-15.28,21.2v51.57h8.49v.74h-47.38v-.74h11.51V40.51l-11.81.68v-.74l39.49-2.36-.52,23.77.09.03c3.36-18.89,16.14-23.94,27.81-23.94,12.84,0,21.99,7.53,21.99,23.77v54.18Z"/>
    <path class="cls-1" d="M502.32,89.01c-6.5,15.65-19.41,28.79-39.93,28.79s-38.01-14.39-38.01-38.68,16.9-41.41,42.73-41.41,37.86,12.92,34.32,31.66h-49.18c.83,21,12.1,31.66,26.52,31.66,7.68,0,17.79-2.8,23.03-12.33l.52.3ZM467.12,38.46c-12.77,0-14.91,18.6-14.91,28.42,0,.55,0,1.09.02,1.62h22.93c1.34-9.22,3.4-30.04-8.05-30.04h0Z"/>
  </g>
  <g>
    <path class="cls-1" d="M284.78,149.72v29.33h-3.82v-29.33h-10.35v-1.45h24.48v1.45h-10.31Z"/>
    <path class="cls-1" d="M310.89,157.61c4.62,0,7.09,2.98,7.09,6.95v14.5h-3.31v-13.8c0-4.57-2.05-6.16-4.94-6.16-3.5,0-6.11,3.5-6.11,6.16v13.8h-3.26v-34.27h3.26v17.77c.7-2.28,3.31-4.94,7.27-4.94Z"/>
    <path class="cls-1" d="M333.32,179.52c-5.78,0-9.51-3.73-9.51-10.77,0-6.02,3.4-11.14,9.19-11.14,5.18,0,8.67,4.01,8.67,9.7h-14.22v1.31c0,7.88,2.94,9.51,6.39,9.51s6.39-1.87,6.81-5.46h.65c-.33,3.92-3.82,6.85-7.97,6.85ZM327.54,166.33h10.49c0-6.02-2.38-7.65-4.99-7.65-2.98,0-5.13,1.63-5.5,7.65Z"/>
    <path class="cls-1" d="M363.63,154.53c0,3.08,1.49,4.94,6.9,7.23,6.06,2.61,8.44,4.99,8.44,9.47,0,4.94-4.57,8.3-9.93,8.3s-9.33-2.7-9.84-8.72h.89c.65,5.32,4.2,7.42,8.86,7.42,4.01,0,6.76-2.29,6.76-6.02,0-3.5-1.96-5.08-7.27-7.32-5.97-2.47-7.79-5.04-7.79-9s2.56-8.07,9.05-8.07c5.08,0,8.07,2.94,8.58,8.02h-.93c-.51-4.43-3.26-6.71-7.6-6.71s-6.11,2.33-6.11,5.41Z"/>
    <path class="cls-1" d="M397.38,175.37c-.89,1.96-3.17,4.15-6.95,4.15s-5.92-1.77-5.92-4.9c0-4.01,2.71-5.46,7.09-6.3l5.78-1.12v-2.05c0-4.29-2.29-6.06-5.22-6.06s-5.36,1.68-5.55,4.71h-.56c.14-4.24,3.22-6.25,6.95-6.25,5.55,0,7.65,3.64,7.65,7.6v13.9h-3.26v-3.68ZM397.38,173.32v-5.13l-3.82.7c-3.5.65-5.41,1.91-5.41,5.36,0,2.38,1.26,3.87,3.82,3.87,2.89,0,5.41-2.89,5.41-4.8Z"/>
    <path class="cls-1" d="M411.51,179.06h-3.26v-34.27h3.26v34.27Z"/>
    <path class="cls-1" d="M427.04,157.61c5.88,0,9.37,4.76,9.37,10.72s-3.5,11.19-9.37,11.19-9.47-4.9-9.47-10.82,3.54-11.1,9.47-11.1ZM427.04,178.5c3.45,0,5.83-2.19,5.83-10.17s-2.38-9.65-5.83-9.65-5.83,2.15-5.83,10.03,2.38,9.79,5.83,9.79Z"/>
    <path class="cls-1" d="M453.01,157.61c4.62,0,7.09,2.98,7.09,6.95v14.5h-3.31v-13.8c0-4.57-2.05-6.16-4.94-6.16-3.5,0-6.11,3.5-6.11,6.16v13.8h-3.26v-20.98h3.26v4.48c.7-2.28,3.31-4.94,7.27-4.94Z"/>
  </g>
</svg>