<?xml version="1.0" encoding="UTF-8"?>
<svg id="Layer_1" data-name="Layer 1" xmlns="http://www.w3.org/2000/svg" viewBox="0 0 60 60">
  <defs>
    <style>
      .cls-1 {
        fill: #473c38;
        stroke-width: 0px;
      }
    </style>
  </defs>
  <path class="cls-1" d="M.14,56.82c0-17.9,0-35.79,0-53.69.04-.08.09-.15.11-.23C.64,1.14,1.84.16,3.64.16c17.57,0,35.15,0,52.72,0,1.8,0,3,.99,3.39,2.74.02.08.07.16.11.23v53.69c-.03.06-.08.12-.09.18-.48,1.92-1.59,2.79-3.56,2.79-4.7,0-9.4,0-14.1,0h-.62v-23.05c.26,0,.47,0,.68,0,2.1,0,4.2-.02,6.29.01.56,0,.74-.17.8-.7.25-2.15.55-4.3.82-6.44.08-.63.15-1.26.23-1.96h-8.95c.07-2.51.07-4.95.24-7.39.09-1.3.98-2.12,2.25-2.42.6-.14,1.23-.21,1.85-.22,1.44-.03,2.88-.03,4.32,0,.46,0,.63-.09.62-.6-.03-2.34-.01-4.68-.01-7.02,0-.17,0-.34,0-.56-.52-.05-.98-.13-1.45-.14-2.51-.03-5.04-.27-7.53-.03-5.42.51-9.16,4.27-9.58,10.25-.17,2.47-.07,4.96-.1,7.43,0,.22-.02.44-.03.69-.24,0-.43,0-.62,0-2.2,0-4.4.01-6.61,0-.43,0-.57.12-.56.55.02,2.65.02,5.31,0,7.96,0,.45.13.6.59.59,2.2-.02,4.4-.01,6.61,0,.2,0,.4.02.58.03v23.02h-.67c-7.32,0-14.64,0-21.95,0-1.92,0-3.85,0-5.77,0-1.57,0-2.83-.96-3.22-2.38-.05-.2-.11-.39-.17-.59Z"/>
</svg>