<svg id="Layer_1" data-name="Layer 1" xmlns="http://www.w3.org/2000/svg" viewBox="0 0 60 60"><defs><style>.cls-1{fill:#fff;}</style></defs><path class="cls-1" d="M.14,56.82V3.13A1,1,0,0,0,.25,2.9,3.23,3.23,0,0,1,3.64.16H56.36A3.23,3.23,0,0,1,59.75,2.9a1,1,0,0,0,.11.23V56.82a.76.76,0,0,0-.09.18,3.29,3.29,0,0,1-3.57,2.8H41.49V36.74h.68c2.09,0,4.19,0,6.29,0,.56,0,.74-.17.8-.71.26-2.15.55-4.29.83-6.44.08-.63.14-1.25.23-2h-9c.07-2.51.06-5,.23-7.39a2.65,2.65,0,0,1,2.25-2.42,9.54,9.54,0,0,1,1.85-.22c1.44,0,2.88,0,4.32,0,.45,0,.63-.09.62-.6,0-2.34,0-4.68,0-7V9.45c-.52-.06-1-.13-1.44-.14a67.57,67.57,0,0,0-7.53,0c-5.42.51-9.16,4.27-9.58,10.25C31.91,22,32,24.48,32,27c0,.22,0,.44,0,.7h-.61c-2.21,0-4.41,0-6.61,0-.43,0-.57.12-.56.55,0,2.65,0,5.31,0,8,0,.45.12.6.58.59,2.21,0,4.41,0,6.61,0l.58,0v23H3.54A3.26,3.26,0,0,1,.31,57.41C.26,57.21.2,57,.14,56.82Z"/></svg>