<?xml version="1.0" encoding="UTF-8"?>
<svg id="Layer_1" data-name="Layer 1" xmlns="http://www.w3.org/2000/svg" viewBox="0 0 60 60">
  <defs>
    <style>
      .cls-1 {
        fill: #473c38;
        stroke-width: 0px;
      }
    </style>
  </defs>
  <path class="cls-1" d="M30.74,22.92c-4.28,0-7.77,3.48-7.77,7.77s3.48,7.77,7.77,7.77,7.77-3.48,7.77-7.77-3.48-7.77-7.77-7.77Z"/>
  <path class="cls-1" d="M55.06,0H5.06C2.31,0,.06,2.25.06,5v50c0,2.75,2.25,5,5,5h50c2.75,0,5-2.25,5-5V5C60.06,2.25,57.81,0,55.06,0ZM51.63,41.18c.13,15.19-21.82,9.99-31.03,10.82-15.5.16-9.86-22.98-10.82-32.26-.13-15.19,21.82-9.99,31.03-10.82,15.5-.16,9.86,22.98,10.82,32.26Z"/>
  <path class="cls-1" d="M40.81,13.11h-20.21c-3.66,0-6.63,2.98-6.63,6.63v21.44c0,3.66,2.98,6.63,6.63,6.63h20.21c3.66,0,6.63-2.98,6.63-6.63v-21.44c0-3.66-2.98-6.63-6.63-6.63ZM30.74,42.29c-6.4,0-11.61-5.21-11.61-11.61s5.21-11.61,11.61-11.61,11.61,5.21,11.61,11.61-5.21,11.61-11.61,11.61ZM42.41,21.78c-1.6,0-2.9-1.3-2.9-2.9s1.3-2.9,2.9-2.9,2.9,1.3,2.9,2.9-1.3,2.9-2.9,2.9Z"/>
</svg>