<svg id="Layer_1" data-name="Layer 1" xmlns="http://www.w3.org/2000/svg" viewBox="0 0 60 60"><defs><style>.cls-1{fill:#fff;}</style></defs><path class="cls-1" d="M30.74,22.92a7.77,7.77,0,1,0,7.77,7.76A7.77,7.77,0,0,0,30.74,22.92Z"/><path class="cls-1" d="M55.06,0h-50a5,5,0,0,0-5,5V55a5,5,0,0,0,5,5h50a5,5,0,0,0,5-5V5A5,5,0,0,0,55.06,0ZM51.63,41.18A10.83,10.83,0,0,1,40.81,52H20.6A10.84,10.84,0,0,1,9.77,41.18V19.74A10.84,10.84,0,0,1,20.6,8.92H40.81A10.83,10.83,0,0,1,51.63,19.74Z"/><path class="cls-1" d="M40.81,13.11H20.6A6.64,6.64,0,0,0,14,19.74V41.18a6.64,6.64,0,0,0,6.64,6.63H40.81a6.63,6.63,0,0,0,6.63-6.63V19.74A6.63,6.63,0,0,0,40.81,13.11ZM30.74,42.29A11.61,11.61,0,1,1,42.35,30.68,11.62,11.62,0,0,1,30.74,42.29ZM42.41,21.78a2.9,2.9,0,1,1,2.89-2.9A2.9,2.9,0,0,1,42.41,21.78Z"/></svg>