<?xml version="1.0" encoding="UTF-8"?>
<svg id="Layer_1" data-name="Layer 1" xmlns="http://www.w3.org/2000/svg" viewBox="0 0 60 59.97">
  <defs>
    <style>
      .cls-1 {
        fill: #473c38;
        stroke-width: 0px;
      }
    </style>
  </defs>
  <path class="cls-1" d="M55,0H5C2.25,0,0,2.25,0,5v49.98c0,2.75,2.25,5,5,5h50c2.75,0,5-2.25,5-5V5C60,2.25,57.75,0,55,0ZM48.44,37.69c-4.38,10.54-15.85,14.22-24.32,11.34,2.07-2.93,2.82-6.29,3.66-9.78.93,1.11,1.98,1.78,3.26,2.02,2.49.48,4.75-.16,6.8-1.58,5.14-3.54,7.33-13.43,1.5-18.89-2.28-2.13-5.01-3.23-8.11-3.38-3.37-.16-6.53.5-9.31,2.51-4.84,3.49-6.21,10.58-2.91,15.28.54.76,1.34,1.35,2.08,1.96.43.36.82.23.95-.39.14-.65.37-1.28.45-1.94.03-.26-.1-.66-.25-.89-3.23-5.1-.22-11.82,5.82-12.86,2.29-.4,4.54-.16,6.66,1.18,2.01,1.26,3.21,3.48,3.45,5.84.29,2.84-.24,5.54-2.02,7.89-1.18,1.56-2.79,2.37-4.86,2.09-1.62-.22-2.59-1.82-2.22-3.41.42-1.8.98-3.56,1.44-5.35.13-.5.16-1.03.17-1.54,0-1.2-.45-2.23-1.81-2.61-.9-.25-1.88.02-2.62.61-1.11.89-1.63,2.12-1.68,3.49-.04,1.02.21,2.05.31,3.08.04.43.14.88.05,1.29-.66,2.92-1.46,5.8-2.02,8.74-.31,1.61-.24,3.3-.33,4.96-.02.36.05.72.08,1.1-7.11-2.33-14.64-11.4-12.16-22.73,2.66-12.16,15.81-19.16,27.51-14.04,9.88,4.33,14.58,16.03,10.45,25.99Z"/>
</svg>