<svg id="Layer_1" data-name="Layer 1" xmlns="http://www.w3.org/2000/svg" viewBox="0 0 60 60"><defs><style>.cls-1{fill:#fff;}</style></defs><path class="cls-1" d="M55,0H5A5,5,0,0,0,0,5V55a5,5,0,0,0,5,5H55a5,5,0,0,0,5-5V5A5,5,0,0,0,55,0ZM48.73,37A19.84,19.84,0,0,1,24.11,49c2.08-2.93,2.82-6.29,3.66-9.78a5.5,5.5,0,0,0,3.27,2,8.7,8.7,0,0,0,6.8-1.57c5.14-3.54,7.33-13.44,1.5-18.89a12.41,12.41,0,0,0-8.11-3.38,14.2,14.2,0,0,0-9.31,2.51c-4.84,3.5-6.21,10.58-2.91,15.28a10.43,10.43,0,0,0,2.07,2c.44.36.82.24,1-.38s.35-1.21.44-1.82a1.53,1.53,0,0,0-.19-.94,8.46,8.46,0,0,1,5.77-12.93,9.43,9.43,0,0,1,5.23.45,7.28,7.28,0,0,1,4.84,6.17,11,11,0,0,1-2,8.29,5,5,0,0,1-4.53,2.13,2.75,2.75,0,0,1-2.57-3.38c.42-1.82,1-3.6,1.46-5.42a6.06,6.06,0,0,0,.16-1.54,2.46,2.46,0,0,0-1.36-2.45,2.77,2.77,0,0,0-3,.41,4.5,4.5,0,0,0-1.74,3.53,23.12,23.12,0,0,0,.31,3.08,4.33,4.33,0,0,1,.05,1.29c-.66,2.91-1.46,5.8-2,8.74a37,37,0,0,0-.33,5,8.38,8.38,0,0,0,.08,1.1C15.54,46.13,8,37.06,10.48,25.73A20,20,0,1,1,48.73,37Z"/></svg>