<?xml version="1.0" encoding="UTF-8"?>
<svg id="Layer_1" data-name="Layer 1" xmlns="http://www.w3.org/2000/svg" viewBox="0 0 60 59.97">
  <defs>
    <style>
      .cls-1 {
        fill: #473c38;
        stroke-width: 0px;
      }
    </style>
  </defs>
  <path class="cls-1" d="M60,3.5C60,1.56,58.43-.01,56.49-.01h-3.38s-.09.01-.13.01c-.02,0-.04,0-.06,0C37.67-.02,22.41-.02,7.15.02c-.09,0-.17-.03-.26-.03h-3.38C1.57-.01,0,1.56,0,3.5v3.38c0,.07.02.13.02.19,0,.08-.02.16-.02.25,0,15.11,0,30.23,0,45.34,0,.1.01.19.01.29,0,.05-.01.09-.01.14v3.38c0,1.94,1.57,3.51,3.51,3.51h3.38s.05,0,.08,0c.12,0,.24.02.36.02,7.56,0,15.11,0,22.67,0,7.62,0,15.25,0,22.87,0,.06,0,.13,0,.19,0,.02,0,.04,0,.05,0h3.38c1.94,0,3.51-1.57,3.51-3.51v-3.38s-.01-.09-.01-.14c0-.01,0-.02,0-.04.01-15.28.01-30.57,0-45.85,0-.01,0-.03,0-.04,0-.05.02-.1.02-.15v-3.38ZM47.12,26.18c-4.13.22-7.38-1.34-9.92-4.75v.62c0,5.27.04,10.54-.01,15.81-.04,4.05-1.7,7.36-4.96,9.78-7.22,5.36-17.6,1.22-19.2-7.63-1.36-7.5,4.58-14.51,12.13-14.31.18,0,.37.02.58.03v5.86c-.74.08-1.47.08-2.16.23-2.98.66-4.99,3.46-4.76,6.56.22,2.97,2.66,5.42,5.64,5.66,3.26.27,6.24-1.84,6.9-4.91.1-.46.14-.94.14-1.41.02-9.05.03-18.1.05-27.15,0-.18,0-.37,0-.58h5.68c1.03,5.54,4.32,8.72,9.89,9.58v6.62Z"/>
</svg>