<svg id="Layer_1" data-name="Layer 1" xmlns="http://www.w3.org/2000/svg" viewBox="0 0 60 60"><defs><style>.cls-1{fill:#fff;}</style></defs><path class="cls-1" d="M54.9,0H5.1A5.1,5.1,0,0,0,0,5.1V54.9A5.1,5.1,0,0,0,5.1,60H54.9A5.1,5.1,0,0,0,60,54.9V5.1A5.1,5.1,0,0,0,54.9,0ZM49.62,18a16.13,16.13,0,0,1-3.71,3.8.34.34,0,0,0-.15.32,21.45,21.45,0,0,1-.53,5.76,23.94,23.94,0,0,1-6.71,12.07,21.4,21.4,0,0,1-5.23,3.73,22.92,22.92,0,0,1-10.11,2.47,23.18,23.18,0,0,1-12.89-3.54s-.1,0-.12-.11a16.38,16.38,0,0,0,11.94-3.35.12.12,0,0,0-.09,0,7.69,7.69,0,0,1-2.42-.46,8.13,8.13,0,0,1-5-5c-.06-.19,0-.2.11-.17a7.86,7.86,0,0,0,2.65,0,4.15,4.15,0,0,0,.8-.18,8.09,8.09,0,0,1-6.43-8.08,7.75,7.75,0,0,0,3.55,1,8.18,8.18,0,0,1-2.41-10.84l.08.09a24,24,0,0,0,1.81,2,23.07,23.07,0,0,0,6.15,4.25,23,23,0,0,0,8.54,2.19c.2,0,.2,0,.16-.18A8.15,8.15,0,0,1,36.33,14a1.58,1.58,0,0,0,.52-.09h1.39a.08.08,0,0,0,.08,0,8,8,0,0,1,5.11,2.42.28.28,0,0,0,.31.08,16.18,16.18,0,0,0,4.8-1.84.38.38,0,0,1,.18-.06,8.3,8.3,0,0,1-3.49,4.44,15.67,15.67,0,0,0,4.6-1.26Z"/></svg>