<svg id="Layer_1" data-name="Layer 1" xmlns="http://www.w3.org/2000/svg" viewBox="0 0 64 64"><defs><style>.cls-1{fill:#422918;}.cls-2{fill:#fff;}</style></defs><rect class="cls-1" width="64" height="64"/><path class="cls-2" d="M57.58,42.88v-.42c-2.56-.48-4.32-2.24-6.08-4-2.83-2.83-10.24-12.38-13.23-16.6L34.1,26.66A117.06,117.06,0,0,0,42,37.44c3.15,3.84,5.23,4.7,8.59,5.07,2.24.27,5.82.37,7,.37" transform="translate(0 0)"/><path class="cls-2" d="M56.41,8.89H40.19v.43c2.19.16,4.48.9,4.48,3.36,0,1.55-1,3.31-2.51,4.91l.27.32a68.57,68.57,0,0,1,8.38-6.46,13.57,13.57,0,0,1,5.6-2.13Z" transform="translate(0 0)"/><path class="cls-2" d="M17.09,8.89H5.94v.42c3.47.43,4.59,1.71,4.59,6.19V35.89c0,4.48-1.12,5.76-4.59,6.19v.43h16.7v-.43c-3.79-.43-5.55-1.65-5.55-6.19Z" transform="translate(0 0)"/><path class="cls-2" d="M21.24,26.73a20,20,0,0,0,6.42-.87c3.73-1.18,6.51-3.79,6.51-8.06,0-4.48-3-7.58-9.29-8.49A42.29,42.29,0,0,0,20,8.89v.42c4.59.59,7.47,3.1,7.47,8.43,0,4-.69,7.1-4.26,8.22a12.16,12.16,0,0,1-1.93.43Z" transform="translate(0 0)"/><path class="cls-2" d="M6.34,53.61a6.06,6.06,0,0,0-1,0s0-.21,0-.63V51.72c0-.57-.05-.89-.45-.89s-.86.36-.86,1.17v1c0,.28,0,.4.1.47a.45.45,0,0,0,.24,0l0,.14-.54,0-.75,0,0-.14a.56.56,0,0,0,.31,0A.85.85,0,0,0,3.51,53V51.63c0-.88,0-2.22,0-2.22A.5.5,0,0,0,3.35,49,.91.91,0,0,0,3,49l0-.13a5.72,5.72,0,0,0,1,0l0,2.36a1.23,1.23,0,0,1,1.08-.74.74.74,0,0,1,.77.8,4.4,4.4,0,0,1,0,.52V53c0,.28,0,.4.16.47a.72.72,0,0,0,.31,0Z" transform="translate(0 0)"/><path class="cls-2" d="M10.81,51.92a1.58,1.58,0,0,0-.81.14.77.77,0,0,0-.37.8.5.5,0,0,0,.57.48.73.73,0,0,0,.61-.62v-.8m1,1.68h-.93l0-.4a1.2,1.2,0,0,1-.94.47A.73.73,0,0,1,9,52.93a1.13,1.13,0,0,1,.6-1.07,2.31,2.31,0,0,1,1.18-.17v-.11c0-.66-.1-.92-.58-.92a.71.71,0,0,0-.75.73H9.35l-.11-.61a1.22,1.22,0,0,1,.76-.29c.65-.1,1.21.1,1.32.6a2.64,2.64,0,0,1,0,.58v1.28c0,.24,0,.37.12.44a.49.49,0,0,0,.35.09Z" transform="translate(0 0)"/><path class="cls-2" d="M15,49.89a.32.32,0,1,1,0-.63.32.32,0,1,1,0,.63m.7,3.72a6.07,6.07,0,0,0-1,0s0-.21,0-.63V51.1c0-.24-.08-.31-.17-.37a.65.65,0,0,0-.29-.06l.06-.14a3.64,3.64,0,0,0,.94,0V53c0,.28.07.4.16.47a1,1,0,0,0,.31,0Z" transform="translate(0 0)"/><path class="cls-2" d="M20.43,51.21l-.15,0c0-.29-.3-.34-.49-.25a1.12,1.12,0,0,0-.42,1v1c0,.28.06.39.16.47a1,1,0,0,0,.38.06l-.06.13-.73,0-.76,0,.05-.13a.55.55,0,0,0,.31-.06.8.8,0,0,0,.1-.47V52c0-.7,0-.92,0-.92,0-.24,0-.33-.14-.38a.84.84,0,0,0-.35-.07l.05-.13a5.71,5.71,0,0,0,1,0l0,.74c.11-.44.34-.81.76-.81s.34.19.34.19Z" transform="translate(0 0)"/><path class="cls-2" d="M25.12,51.32c0-.29.07-.57-.29-.61a1,1,0,0,0-.92.39,1.69,1.69,0,0,0-.24,1.07c0,.73.35,1.25.77,1.25a.74.74,0,0,0,.68-.72s0-.44,0-.79,0-.59,0-.59m1,2.29a7.32,7.32,0,0,0-.94,0l0-.36a1,1,0,0,1-.8.45A1.17,1.17,0,0,1,23.24,53a2,2,0,0,1,0-1.49,1.51,1.51,0,0,1,1.46-1,2.42,2.42,0,0,1,.47,0v-1.1c0-.23-.05-.31-.15-.38a.93.93,0,0,0-.34-.06l0-.13a8.48,8.48,0,0,0,1,0c0,1,0,1.63,0,2.5,0,.65,0,1.61,0,1.61,0,.24,0,.36.11.43a.47.47,0,0,0,.36.09Z" transform="translate(0 0)"/><path class="cls-2" d="M30.85,51.21a.58.58,0,0,1-.14,0c0-.29-.3-.34-.49-.25a1.15,1.15,0,0,0-.43,1l0,1c0,.28.05.39.16.47a1,1,0,0,0,.38.06l-.06.13-.74,0-.75,0,.05-.13a.5.5,0,0,0,.3-.06.8.8,0,0,0,.1-.47V52c0-.7,0-.92,0-.92,0-.24-.05-.33-.13-.38a.86.86,0,0,0-.36-.07l.06-.13a5.61,5.61,0,0,0,1,0l0,.74c.12-.44.35-.81.77-.81s.34.19.34.19Z" transform="translate(0 0)"/><path class="cls-2" d="M34.81,50.67c-.25,0-.6.23-.67,1.08h1c.17,0,.16,0,.16-.21,0-.44-.13-.87-.52-.87M35.9,52H34.12c-.06.83.34,1.48.92,1.48a1.15,1.15,0,0,0,.78-.3l0,.19a1.31,1.31,0,0,1-1.06.36,1.43,1.43,0,0,1-1.29-1.66c0-.66.44-1.59,1.32-1.59s1.09.69,1.09,1.26a1.46,1.46,0,0,1,0,.26" transform="translate(0 0)"/><path class="cls-2" d="M39.52,53.71c-.65,0-.85-.26-.85-.26l.06-.65.13,0a.66.66,0,0,0,.76.73.6.6,0,0,0,.6-.58c0-.78-1.47-.56-1.47-1.68,0-.44.39-.78,1.1-.78a.94.94,0,0,1,.74.25l-.06.64-.12,0a.62.62,0,0,0-.5-.7.49.49,0,0,0-.64.46c0,.73,1.45.59,1.45,1.56,0,.62-.5,1-1.2,1" transform="translate(0 0)"/><path class="cls-2" d="M44.35,53.71c-.66,0-.86-.26-.86-.26l.07-.65.13,0a.66.66,0,0,0,.76.73.6.6,0,0,0,.59-.58c0-.78-1.46-.56-1.46-1.68,0-.44.39-.78,1.09-.78a1,1,0,0,1,.75.25l-.07.64-.11,0a.63.63,0,0,0-.5-.7.5.5,0,0,0-.65.46c0,.73,1.45.59,1.45,1.56,0,.62-.49,1-1.19,1" transform="translate(0 0)"/><path class="cls-2" d="M48.93,49.89a.32.32,0,1,1,0-.63.32.32,0,1,1,0,.63m.7,3.72a6.06,6.06,0,0,0-1,0s0-.21,0-.63V51.1c0-.24-.08-.31-.17-.37a.65.65,0,0,0-.29-.06l.06-.14a3.64,3.64,0,0,0,.94,0V53c0,.28.06.4.16.47a1,1,0,0,0,.31,0Z" transform="translate(0 0)"/><path class="cls-2" d="M55.62,53.61a6.07,6.07,0,0,0-1,0s0-.21,0-.63V51.72c0-.45,0-.89-.43-.89A1,1,0,0,0,53.33,52v1c0,.28,0,.4.1.47a.41.41,0,0,0,.24,0l0,.14-.55,0-.75,0,.05-.14a.52.52,0,0,0,.3,0,.77.77,0,0,0,.11-.47v-.71c0-.88,0-1.12,0-1.12,0-.24-.07-.33-.15-.38a.94.94,0,0,0-.34-.07l0-.14a5.71,5.71,0,0,0,1,0l0,.67a1.2,1.2,0,0,1,1.34-.72.77.77,0,0,1,.51.78c0,.09,0,.11,0,.52V53c0,.28,0,.38.12.46a.68.68,0,0,0,.35.06Z" transform="translate(0 0)"/><path class="cls-2" d="M59.57,50.66c-.36,0-.59.38-.59.9s.24.94.6.94.59-.44.59-1-.22-.88-.6-.88m-.38,2.91c-.43.22-.68.55-.46.85a1.38,1.38,0,0,0,1.31.37c.62-.17.68-.6.53-.89s-.42-.38-1.38-.33m.16,1.54c-.77,0-1.25-.39-1.28-.66-.06-.46.55-.75.84-.91-.24,0-.51-.11-.53-.38,0-.12.33-.24.7-.55a1,1,0,0,1-.53-.44,1.06,1.06,0,0,1-.06-1,1.21,1.21,0,0,1,1.18-.74,1,1,0,0,1,.31,0,2.28,2.28,0,0,0,.94,0v.26l-.52,0-.16,0,.09.07a.66.66,0,0,1,.27.24,1.07,1.07,0,0,1,.07,1,1.24,1.24,0,0,1-1.19.74h-.19c-.12.05-.27.27-.22.32s.8,0,1.24.13a.82.82,0,0,1,.65,1,1.52,1.52,0,0,1-1.61.92" transform="translate(0 0)"/></svg>